<svg width="25" height="24" viewBox="0 0 25 24" fill="none" xmlns="http://www.w3.org/2000/svg">
<path d="M0.5 12C0.5 5.37258 5.87258 0 12.5 0C19.1274 0 24.5 5.37258 24.5 12C24.5 18.6274 19.1274 24 12.5 24C5.87258 24 0.5 18.6274 0.5 12Z" fill="#003D68"/>
<g clipPath="url(#clip0_220_810)">
<path d="M13.3833 4.73581C13.149 4.50172 12.8313 4.37024 12.5 4.37024C12.1688 4.37024 11.851 4.50172 11.6167 4.73581L6.90084 9.44914C6.66635 9.68363 6.53461 10.0017 6.53461 10.3333C6.53461 10.6649 6.66635 10.983 6.90084 11.2175C7.13534 11.452 7.45338 11.5837 7.78501 11.5837C8.11663 11.5837 8.43468 11.452 8.66917 11.2175L11.25 8.63747V18.25C11.25 18.5815 11.3817 18.8994 11.6161 19.1339C11.8505 19.3683 12.1685 19.5 12.5 19.5C12.8315 19.5 13.1495 19.3683 13.3839 19.1339C13.6183 18.8994 13.75 18.5815 13.75 18.25V8.63747L16.33 11.2175C16.4461 11.3336 16.584 11.4257 16.7357 11.4885C16.8874 11.5514 17.05 11.5837 17.2142 11.5837C17.3784 11.5837 17.541 11.5514 17.6927 11.4885C17.8444 11.4257 17.9822 11.3336 18.0983 11.2175C18.2145 11.1014 18.3066 10.9635 18.3694 10.8118C18.4322 10.6601 18.4646 10.4975 18.4646 10.3333C18.4646 10.1691 18.4322 10.0065 18.3694 9.8548C18.3066 9.70309 18.2145 9.56525 18.0983 9.44914L13.3833 4.73581Z" fill="white"/>
</g>
<defs>
<clipPath id="clip0_220_810">
<rect width="20" height="20" fill="white" transform="translate(2.5 2)"/>
</clipPath>
</defs>
</svg>
