<svg width="24" height="24" viewBox="0 0 24 24" fill="none" xmlns="http://www.w3.org/2000/svg">
<path d="M12 1.33301C9.89032 1.33301 7.82803 1.9586 6.0739 3.13067C4.31978 4.30273 2.9526 5.96864 2.14527 7.91772C1.33793 9.8668 1.1267 12.0115 1.53827 14.0806C1.94985 16.1498 2.96575 18.0504 4.45751 19.5421C5.94927 21.0339 7.84989 22.0498 9.91902 22.4614C11.9882 22.873 14.1329 22.6617 16.0819 21.8544C18.031 21.0471 19.6969 19.6799 20.869 17.9258C22.0411 16.1716 22.6667 14.1093 22.6667 11.9997C22.6667 9.1707 21.5428 6.45759 19.5425 4.4572C17.5421 2.45681 14.829 1.33301 12 1.33301ZM12 21.333C10.154 21.333 8.34952 20.7856 6.81466 19.7601C5.2798 18.7345 4.08353 17.2768 3.37711 15.5714C2.67069 13.8659 2.48586 11.9893 2.84599 10.1788C3.20612 8.36834 4.09503 6.7053 5.40032 5.40001C6.70561 4.09472 8.36865 3.20581 10.1791 2.84568C11.9896 2.48555 13.8663 2.67038 15.5717 3.3768C17.2771 4.08322 18.7348 5.27949 19.7604 6.81435C20.7859 8.34921 21.3333 10.1537 21.3333 11.9997C21.3333 14.475 20.35 16.849 18.5996 18.5993C16.8493 20.3497 14.4753 21.333 12 21.333Z" fill="#06C270"/>
<path d="M16.8564 9.30033C16.7655 9.20993 16.6424 9.15918 16.5142 9.15918C16.386 9.15918 16.2629 9.20993 16.172 9.30033L10.7839 14.6641L7.8715 11.7516C7.78267 11.6557 7.65938 11.599 7.52875 11.594C7.39812 11.589 7.27085 11.6361 7.17494 11.7249C7.07903 11.8138 7.02234 11.9371 7.01733 12.0677C7.01232 12.1983 7.05941 12.3256 7.14824 12.4215L10.7839 16.0475L16.8564 9.98961C16.9019 9.94449 16.938 9.8908 16.9627 9.83165C16.9873 9.7725 17 9.70905 17 9.64497C17 9.58089 16.9873 9.51745 16.9627 9.4583C16.938 9.39914 16.9019 9.34546 16.8564 9.30033Z" fill="#06C270"/>
</svg>
