<svg width="20" height="18" viewBox="0 0 20 18" fill="none" xmlns="http://www.w3.org/2000/svg">
<path d="M3.25 0C2.38805 0 1.5614 0.34241 0.951903 0.951903C0.34241 1.5614 0 2.38805 0 3.25V12.25C0 13.112 0.34241 13.9386 0.951903 14.5481C1.5614 15.1576 2.38805 15.5 3.25 15.5H13.75C14.612 15.5 15.4386 15.1576 16.0481 14.5481C16.6576 13.9386 17 13.112 17 12.25V3.25C17 2.38805 16.6576 1.5614 16.0481 0.951903C15.4386 0.34241 14.612 0 13.75 0H3.25ZM6 10.25V4.751C6.00004 4.61639 6.03632 4.48427 6.10501 4.36851C6.17371 4.25275 6.27229 4.1576 6.39042 4.09307C6.50855 4.02853 6.64188 3.99697 6.7764 4.00171C6.91093 4.00645 7.0417 4.04731 7.155 4.12L11.773 7.079C11.8436 7.12424 11.9017 7.1865 11.9419 7.26007C11.9822 7.33364 12.0033 7.41615 12.0033 7.5C12.0033 7.58385 11.9822 7.66636 11.9419 7.73993C11.9017 7.8135 11.8436 7.87576 11.773 7.921L7.155 10.88C7.0417 10.9527 6.91093 10.9935 6.7764 10.9983C6.64188 11.003 6.50855 10.9715 6.39042 10.9069C6.27229 10.8424 6.17371 10.7473 6.10501 10.6315C6.03632 10.5157 6.00004 10.3836 6 10.249V10.25ZM5.75 18C5.204 18.0005 4.6667 17.8633 4.18777 17.6011C3.70884 17.339 3.30377 16.9602 3.01 16.5H14.25C15.2446 16.5 16.1984 16.1049 16.9017 15.4017C17.6049 14.6984 18 13.7446 18 12.75V3.01C18.4602 3.30377 18.839 3.70884 19.1011 4.18777C19.3633 4.6667 19.5005 5.204 19.5 5.75V12.75C19.5 15.65 17.15 18 14.25 18H5.75Z" fill="white"/>
</svg>
