<svg class="" style="display:inline-block;vertical-align:middle" width="18" height="18" viewBox="0 0 1024 1024" xmlns="http://www.w3.org/2000/svg"><path style="fill:#DE1414" d="M512 16c-274 0-496 222-496 496s222 496 496 496 496-222 496-496-222-496-496-496zM755.2 642.2c9.4 9.4 9.4 24.6 0 34l-79.2 79c-9.4 9.4-24.6 9.4-34 0l-130-131.2-130.2 131.2c-9.4 9.4-24.6 9.4-34 0l-79-79.2c-9.4-9.4-9.4-24.6 0-34l131.2-130-131.2-130.2c-9.4-9.4-9.4-24.6 0-34l79.2-79.2c9.4-9.4 24.6-9.4 34 0l130 131.4 130.2-131.2c9.4-9.4 24.6-9.4 34 0l79.2 79.2c9.4 9.4 9.4 24.6 0 34l-131.4 130 131.2 130.2z"></path></svg>