<svg xmlns="http://www.w3.org/2000/svg" width="17" height="16" viewBox="0 0 17 16" fill="none"><script xmlns=""/>
<path d="M6.14967 0C5.36928 0 4.68677 0.45564 4.35326 1.11234C4.14443 1.46436 4.26717 1.91866 4.62455 2.11813C4.97461 2.31344 5.41688 2.18924 5.61329 1.83966C5.68075 1.60806 5.88775 1.45256 6.14954 1.45256H14.4877C14.8097 1.45256 15.046 1.68891 15.046 2.01085V10.3518C15.046 10.604 14.9006 10.8021 14.683 10.8768C14.3336 11.0732 14.2092 11.5162 14.4045 11.8662C14.604 12.2236 15.0583 12.3463 15.4103 12.1375C16.0558 11.8008 16.5014 11.1234 16.5014 10.3518V2.01086C16.5014 0.908148 15.5903 1.55774e-05 14.4876 1.55774e-05L6.14967 0ZM2.51377 3.63808C1.41106 3.63808 0.5 4.54546 0.5 5.64817V13.9892C0.5 15.0919 1.41106 16 2.51377 16H10.852C11.9547 16 12.8657 15.0919 12.8657 13.9892V5.64817C12.8657 4.54546 11.9547 3.63808 10.852 3.63808H2.51377ZM2.51377 5.08988H10.852C11.1739 5.08988 11.4102 5.32623 11.4102 5.64817V13.9892C11.4102 14.3111 11.1739 14.5482 10.852 14.5482H2.51377C2.19183 14.5482 1.95548 14.3111 1.95548 13.9892V5.64817C1.95548 5.32623 2.19183 5.08988 2.51377 5.08988Z" fill="#222222"/>
</svg>