<svg width="31" height="30" viewBox="0 0 31 30" fill="none" xmlns="http://www.w3.org/2000/svg">
<path d="M0.5 15C0.5 6.71573 7.21573 0 15.5 0C23.7843 0 30.5 6.71573 30.5 15C30.5 23.2843 23.7843 30 15.5 30C7.21573 30 0.5 23.2843 0.5 15Z" fill="#E6ECF0"/>
<path fill-rule="evenodd" clip-rule="evenodd" d="M23.4644 9.55808C24.1766 10.3042 24.1788 11.5161 23.4692 12.2651L14.7829 21.4368C14.4413 21.7973 13.9773 22 13.4933 22C13.0094 22 12.5453 21.7974 12.2037 21.437L7.53091 16.4923C6.82124 15.7435 6.82327 14.5315 7.53545 13.7853C8.24762 13.0391 9.40027 13.0413 10.1099 13.7901L13.493 17.3739L20.8899 9.56321C21.5994 8.81427 22.7521 8.81198 23.4644 9.55808Z" fill="#003D68"/>
</svg>
