<svg width="30" height="30" viewBox="0 0 30 30" fill="none" xmlns="http://www.w3.org/2000/svg">
<g clip-path="url(#clip0_1724_2043)">
<path d="M23.7511 12.9108L16.9511 6.24399C16.8322 6.12748 16.6807 6.04814 16.5159 6.016C16.351 5.98386 16.1801 6.00037 16.0248 6.06343C15.8695 6.12649 15.7368 6.23327 15.6434 6.37028C15.55 6.50729 15.5001 6.66838 15.5001 6.83318V9.78741C13.1781 9.99808 11.0199 11.0507 9.44776 12.7392C7.87564 14.4277 7.00278 16.6306 7 18.9168V20.1668C7.00013 20.3398 7.05517 20.5085 7.15748 20.6494C7.2598 20.7903 7.40431 20.8966 7.57097 20.9534C7.73764 21.0101 7.9182 21.0147 8.08761 20.9663C8.25702 20.918 8.40689 20.8191 8.51642 20.6835C9.34917 19.7126 10.3709 17.8427 11.522 17.2634C12.3125 16.7143 13.9304 16.3354 15.2204 16.2378C15.2629 16.2328 15.3692 16.2245 15.5001 16.2162V20.1668C15.5001 20.3316 15.55 20.4927 15.6434 20.6297C15.7368 20.7667 15.8695 20.8735 16.0248 20.9366C16.1801 20.9996 16.351 21.0161 16.5159 20.984C16.6807 20.9519 16.8322 20.8725 16.9511 20.756L23.7511 14.0892C23.9105 13.9329 24 13.721 24 13.5C24 13.279 23.9105 13.0671 23.7511 12.9108Z" fill="#003D68"/>
<path d="M1 15C1 7.26801 7.26801 1 15 1C22.732 1 29 7.26801 29 15C29 22.732 22.732 29 15 29C7.26801 29 1 22.732 1 15Z" stroke="#003D68" stroke-width="2"/>
</g>
<defs>
<clipPath id="clip0_1724_2043">
<rect width="30" height="30" fill="white"/>
</clipPath>
</defs>
</svg>
