<svg width="30" height="30" viewBox="0 0 30 30" fill="none" xmlns="http://www.w3.org/2000/svg">
<g clip-path="url(#clip0_1724_2049)">
<path d="M1 15C1 7.26801 7.26801 1 15 1C22.732 1 29 7.26801 29 15C29 22.732 22.732 29 15 29C7.26801 29 1 22.732 1 15Z" stroke="#003D68" stroke-width="2"/>
<path fill-rule="evenodd" clip-rule="evenodd" d="M10.084 22.1188C10.084 21.1304 10.8852 20.3291 11.8737 20.3291C12.8621 20.3291 13.6633 21.1304 13.6633 22.1188C13.6633 23.1072 12.8621 23.9084 11.8737 23.9084C10.8852 23.9084 10.084 23.1072 10.084 22.1188Z" fill="#003D68"/>
<path fill-rule="evenodd" clip-rule="evenodd" d="M18.7703 22.1188C18.7703 21.1304 19.5715 20.3291 20.5599 20.3291C21.5483 20.3291 22.3496 21.1304 22.3496 22.1188C22.3496 23.1072 21.5483 23.9084 20.5599 23.9084C19.5715 23.9084 18.7703 23.1072 18.7703 22.1188Z" fill="#003D68"/>
<path d="M7.17505 7.1543H8.75439L10.8549 16.962C10.932 17.3212 11.1318 17.6423 11.4201 17.87C11.7084 18.0977 12.067 18.2179 12.4343 18.2097H20.1572C20.5167 18.2091 20.8652 18.0859 21.1451 17.8605C21.4251 17.6351 21.6198 17.3209 21.6971 16.9699L23 11.1026H9.59934" fill="#003D68"/>
<path d="M7.17505 7.1543H8.75439L10.8549 16.962C10.932 17.3212 11.1318 17.6423 11.4201 17.87C11.7084 18.0977 12.067 18.2179 12.4343 18.2097H20.1572C20.5167 18.2091 20.8652 18.0859 21.1451 17.8605C21.4251 17.6351 21.6198 17.3209 21.6971 16.9699L23 11.1026H9.59934" stroke="#003D68" stroke-width="2" stroke-linecap="round" stroke-linejoin="round"/>
</g>
<defs>
<clipPath id="clip0_1724_2049">
<rect width="30" height="30" fill="white"/>
</clipPath>
</defs>
</svg>
