<svg width="31" height="30" viewBox="0 0 31 30" fill="none" xmlns="http://www.w3.org/2000/svg">
<path d="M1.5 15C1.5 7.26801 7.76801 1 15.5 1C23.232 1 29.5 7.26801 29.5 15C29.5 22.732 23.232 29 15.5 29C7.76801 29 1.5 22.732 1.5 15Z" stroke="#003D68" stroke-width="2"/>
<g clip-path="url(#clip0_1724_1950)">
<path d="M16.7593 5.51309C16.4253 5.18454 15.9726 5 15.5006 5C15.0286 5 14.5758 5.18454 14.2419 5.51309L7.52188 12.1285C7.18773 12.4576 7 12.904 7 13.3694C7 13.8349 7.18773 14.2813 7.52188 14.6104C7.85603 14.9395 8.30924 15.1244 8.7818 15.1244C9.25436 15.1244 9.70757 14.9395 10.0417 14.6104L13.7194 10.9893V22.2456C13.7194 22.7109 13.907 23.1571 14.2411 23.4861C14.5751 23.8152 15.0282 24 15.5006 24C15.973 24 16.4261 23.8152 16.7601 23.4861C17.0942 23.1571 17.2818 22.7109 17.2818 22.2456V10.9893L20.9583 14.6104C21.1237 14.7734 21.3202 14.9027 21.5363 14.9908C21.7525 15.079 21.9842 15.1244 22.2182 15.1244C22.4522 15.1244 22.6839 15.079 22.9001 14.9908C23.1162 14.9027 23.3127 14.7734 23.4781 14.6104C23.6436 14.4474 23.7748 14.254 23.8644 14.0411C23.9539 13.8281 24 13.5999 24 13.3694C24 13.139 23.9539 12.9108 23.8644 12.6978C23.7748 12.4849 23.6436 12.2914 23.4781 12.1285L16.7593 5.51309Z" fill="#003D68"/>
</g>
<defs>
<clipPath id="clip0_1724_1950">
<rect width="30" height="30" fill="white" transform="translate(0.5)"/>
</clipPath>
</defs>
</svg>
