<svg width="30" height="30" viewBox="0 0 30 30" fill="none" xmlns="http://www.w3.org/2000/svg">
<path d="M6.04048 26.9952C6.03599 26.9976 6.02849 27 6.02024 27C6.012 27 6.00525 26.9976 6.0015 26.9952L6 26.9944V5.39719C6 4.76977 6.2399 4.16244 6.67472 3.71096C7.11104 3.25868 7.70705 3 8.33304 3H20.667C21.2937 3 21.8897 3.25868 22.3253 3.71096C22.7601 4.16244 23 4.76977 23 5.39719V26.9944L22.9985 26.9952C22.994 26.9976 22.988 27 22.9798 27C22.9715 27 22.9648 26.9984 22.9603 26.9952L14.5 22.2032L6.04048 26.9952Z" stroke="#003D68" stroke-width="2.5" stroke-linejoin="round"/>
</svg>
