<svg xmlns="http://www.w3.org/2000/svg" width="29" height="30" viewBox="0 0 29 30" fill="none">
<path fill-rule="evenodd" clip-rule="evenodd" d="M3.33335 -0.00012207C1.49239 -0.00012207 0 1.49227 0 3.33322V26.6667C0 28.5076 1.49239 30 3.33335 30H16.1667C18.0077 30 19.5001 28.5076 19.5001 26.6667V3.33322C19.5001 1.49227 18.0077 -0.00012207 16.1667 -0.00012207H3.33335ZM13.9396 15.5626L7.77783 19.3986C7.67035 19.468 7.54405 19.5 7.42044 19.5C7.31026 19.5 7.20009 19.4733 7.09798 19.4173C6.88301 19.2998 6.75133 19.0756 6.75133 18.8327V11.1662C6.75133 10.9233 6.883 10.7017 7.09529 10.5843C7.30758 10.4668 7.56824 10.4721 7.77515 10.6003L13.937 14.4336C14.1331 14.5564 14.2514 14.7672 14.2514 14.9995C14.2514 15.2317 14.1358 15.4398 13.9396 15.5626Z" fill="black"/>
<path d="M21 1.49988C22.6569 1.49988 24 2.84303 24 4.49989V25.5C24 27.1568 22.6569 28.5 21 28.5V1.49988Z" fill="black"/>
<path d="M25.502 4.49976C27.1588 4.49976 28.502 5.84291 28.502 7.49977V22.4998C28.502 24.1567 27.1588 25.4998 25.502 25.4998V4.49976Z" fill="black"/>
</svg>