<svg xmlns="http://www.w3.org/2000/svg" width="28" height="28" viewBox="0 0 28 28" fill="none">
<path fill-rule="evenodd" clip-rule="evenodd" d="M17.1258 2.12063L17.3088 2.85311C17.3833 3.15084 17.5998 3.39355 17.8883 3.50084C18.1542 3.59334 18.4137 3.70063 18.6675 3.8173C18.6682 3.81801 18.6688 3.81824 18.6697 3.81857C18.6701 3.81873 18.6706 3.81891 18.6712 3.81918C18.9494 3.94897 19.2752 3.93126 19.5383 3.77355L20.1898 3.3898C21.2913 2.72919 22.7015 2.90274 23.6106 3.81084C23.8 4.00128 23.9988 4.20002 24.1892 4.3894C25.0973 5.29857 25.2709 6.70881 24.6102 7.81024L24.2219 8.45797C24.0632 8.72219 24.0454 9.04779 24.1742 9.32779C24.2956 9.57988 24.404 9.83842 24.5019 10.1015C24.5019 10.1026 24.5022 10.1033 24.5024 10.104C24.5026 10.1044 24.5027 10.1048 24.5027 10.1053C24.6092 10.3936 24.8508 10.6111 25.1488 10.6849L25.8794 10.8742C27.1254 11.1861 28 12.3061 28 13.5913V14.4088C28 15.694 27.1254 16.814 25.8794 17.1258L25.1469 17.3088C24.8492 17.3833 24.6064 17.5998 24.4992 17.8883C24.4067 18.1542 24.2994 18.4127 24.1827 18.6675C24.1817 18.6685 24.1817 18.6694 24.1808 18.6712C24.051 18.9494 24.0687 19.2752 24.2264 19.5383L24.6102 20.1898C25.2708 21.2913 25.0973 22.7015 24.1892 23.6106C23.9987 23.8 23.8 23.9988 23.6106 24.1892C22.7014 25.0973 21.2912 25.2709 20.1898 24.6102L19.542 24.2219C19.2778 24.0632 18.9522 24.0454 18.6722 24.1742C18.4201 24.2956 18.1616 24.404 17.8985 24.5019C17.8974 24.5019 17.8966 24.5022 17.896 24.5024C17.8956 24.5026 17.8951 24.5027 17.8947 24.5027C17.6064 24.6092 17.3889 24.85 17.3151 25.1488L17.1258 25.8794C16.8139 27.1254 15.6939 28 14.4087 28H13.5912C12.306 28 11.186 27.1254 10.8742 25.8794L10.6912 25.1469C10.6167 24.8492 10.4002 24.6064 10.1117 24.4992C9.84585 24.4067 9.58731 24.2994 9.33252 24.1827C9.33181 24.182 9.33119 24.1818 9.33028 24.1814C9.32986 24.1813 9.32936 24.1811 9.32877 24.1808C9.05064 24.051 8.7248 24.0687 8.46168 24.2264L7.81021 24.6102C6.70872 25.2708 5.29854 25.0973 4.38937 24.1892C4.19998 23.9987 4.00122 23.8 3.81081 23.6106C2.90269 22.7014 2.72913 21.2912 3.38977 20.1898L3.7781 19.542C3.93685 19.2778 3.95456 18.9522 3.82581 18.6722C3.70435 18.4201 3.59602 18.1616 3.4981 17.8985C3.4981 17.8968 3.49743 17.8959 3.49729 17.895C3.49728 17.8949 3.49727 17.8948 3.49727 17.8947C3.39082 17.6064 3.15 17.3889 2.85125 17.3151L2.12063 17.1258C0.874557 16.8139 0 15.6939 0 14.4087V13.5912C0 12.306 0.874611 11.186 2.12063 10.8742L2.85311 10.6912C3.15084 10.6167 3.39355 10.4002 3.50084 10.1117C3.59334 9.84585 3.70063 9.58731 3.8173 9.33252C3.81801 9.33181 3.81824 9.33119 3.81857 9.33028C3.81873 9.32985 3.81891 9.32936 3.81918 9.32877C3.94897 9.05064 3.93126 8.7248 3.77355 8.46168L3.3898 7.81021C2.72919 6.70872 2.90274 5.29854 3.81084 4.38937C4.00128 4.19998 4.20002 4.00123 4.3894 3.81081C5.29857 2.90269 6.70881 2.72913 7.81024 3.38977L8.45798 3.7781C8.72219 3.93685 9.04779 3.95456 9.32779 3.82581C9.57988 3.70435 9.83842 3.59602 10.1015 3.4981C10.1026 3.4981 10.1033 3.49783 10.104 3.4976C10.1044 3.49742 10.1048 3.49727 10.1053 3.49727C10.3936 3.39082 10.6111 3.14916 10.6849 2.85124L10.8742 2.12063C11.1861 0.874557 12.3061 0 13.5913 0H14.4088C15.694 0 16.814 0.874611 17.1258 2.12063ZM15.4979 3.3058L15.315 2.57311C15.2106 2.15791 14.8373 1.86666 14.4088 1.86666H13.5913C13.1628 1.86666 12.7894 2.1579 12.685 2.57311C12.6225 2.82518 12.558 3.08185 12.4946 3.31247C12.2678 4.20644 11.6144 4.93163 10.7521 5.24809C10.5411 5.32643 10.334 5.41247 10.1332 5.51038C10.1309 5.51132 10.1284 5.51247 10.1258 5.51361C10.1233 5.51476 10.1207 5.5159 10.1184 5.51684C9.27654 5.90893 8.29468 5.85663 7.49841 5.37976L6.84988 4.99059C6.483 4.77018 6.0126 4.82809 5.71031 5.13142L5.13154 5.7102C4.82821 6.01249 4.77029 6.48289 4.99071 6.84977L5.378 7.50768C5.85112 8.30203 5.90154 9.27723 5.51425 10.1116C5.42092 10.3152 5.33404 10.5225 5.26029 10.7341L5.25467 10.751C4.93552 11.6208 4.20571 12.277 3.30593 12.502L2.57323 12.685C2.15803 12.7893 1.86678 13.1627 1.86678 13.5912V14.4087C1.86678 14.8372 2.15802 15.2105 2.57323 15.3149L3.31259 15.5053C4.20656 15.7322 4.93176 16.3855 5.24821 17.2478C5.32655 17.4589 5.41259 17.6659 5.51051 17.8668C5.51144 17.8691 5.51259 17.8716 5.51374 17.8742C5.51488 17.8767 5.51603 17.8793 5.51696 17.8816C5.90905 18.7234 5.85676 19.7053 5.37988 20.5016L4.99072 21.1501C4.7703 21.517 4.82821 21.9874 5.13155 22.2897L5.71032 22.8684C6.01261 23.1718 6.48302 23.2297 6.84989 23.0093L7.50781 22.622C8.30215 22.1488 9.27735 22.0984 10.1117 22.4857C10.3153 22.5791 10.5226 22.6659 10.7343 22.7397L10.7511 22.7453C11.6209 23.0644 12.2772 23.7943 12.5022 24.694L12.6851 25.4267C12.7894 25.8419 13.1628 26.1332 13.5913 26.1332H14.4088C14.8373 26.1332 15.2107 25.8419 15.315 25.4267L15.5055 24.6874C15.7323 23.7934 16.3857 23.0682 17.248 22.7518C17.459 22.6734 17.6661 22.5874 17.8669 22.4895C17.8725 22.4876 17.8771 22.4849 17.8817 22.483C18.7235 22.0909 19.7054 22.1432 20.5017 22.6201L21.1502 23.0093C21.5171 23.2297 21.9875 23.1718 22.2898 22.8684L22.8685 22.2896C23.1719 21.9874 23.2298 21.517 23.0094 21.1501C22.876 20.928 22.7398 20.7003 22.6221 20.4922C22.149 19.6988 22.0986 18.7226 22.4858 17.8882C22.5792 17.6847 22.666 17.4774 22.7398 17.2657L22.7454 17.2488C23.0646 16.379 23.7944 15.7228 24.6942 15.4978L25.4269 15.3149C25.8421 15.2105 26.1333 14.8372 26.1333 14.4087V13.5912C26.1333 13.1626 25.8421 12.7893 25.4269 12.6849C25.1748 12.6224 24.9181 12.5578 24.6875 12.4945C23.7935 12.2676 23.0683 11.6143 22.7519 10.752C22.6735 10.541 22.5875 10.3339 22.4896 10.1331C22.4889 10.1311 22.4881 10.1292 22.4873 10.1274C22.4859 10.1242 22.4843 10.1212 22.4831 10.1183C22.091 9.27642 22.1433 8.29456 22.6202 7.49829L23.0094 6.84976C23.2298 6.48288 23.1719 6.01248 22.8685 5.71019L22.2898 5.13142C21.9875 4.82809 21.5171 4.77017 21.1502 4.99059C20.9281 5.12392 20.7004 5.26017 20.4923 5.37788C19.699 5.851 18.7227 5.90142 17.8883 5.51413C17.6848 5.42079 17.4775 5.33392 17.2658 5.26017L17.249 5.25454C16.3792 4.9354 15.7229 4.20559 15.4979 3.3058ZM7.46767 14.0222C7.46767 10.403 10.4056 7.46484 14.025 7.46484C17.6447 7.46484 20.5828 10.4028 20.5828 14.0222C20.5828 17.6419 17.6445 20.58 14.025 20.58C10.4058 20.58 7.46767 17.6417 7.46767 14.0222ZM18.716 14.0223C18.716 11.4334 16.6142 9.3315 14.025 9.3315C11.436 9.3315 9.33417 11.4334 9.33417 14.0223C9.33417 16.6115 11.436 18.7133 14.025 18.7133C16.6142 18.7133 18.716 16.6115 18.716 14.0223Z" fill="black"/>
</svg>