<svg xmlns="http://www.w3.org/2000/svg" width="26" height="26" viewBox="0 0 26 26" fill="none">
<path fill-rule="evenodd" clip-rule="evenodd" d="M16.2276 6.8316C16.2276 6.93868 16.1868 7.01983 16.1251 7.07504C16.0695 7.13649 15.9879 7.17706 15.8801 7.17712H9.96075C9.77296 7.17712 9.61328 7.01809 9.61328 6.8316V6.07168V0.876645C9.61328 0.689909 9.77321 0.531128 9.96075 0.531128H15.8801C16.0679 0.531128 16.2276 0.690156 16.2276 0.876645V1.63657V6.8316ZM6.6143 15.9776C6.6143 16.0847 6.57355 16.1658 6.51179 16.221C6.45623 16.2825 6.37458 16.3231 6.26683 16.3231H0.347472C0.15968 16.3231 0 16.1641 0 15.9776V15.2177V10.0226C0 9.83591 0.159928 9.67712 0.347472 9.67712H6.26683C6.45462 9.67712 6.6143 9.83615 6.6143 10.0226V10.7826V15.9776ZM16.2276 15.9776C16.2276 16.0847 16.1868 16.1658 16.1251 16.221C16.0695 16.2825 15.9879 16.3231 15.8801 16.3231H9.96075C9.77296 16.3231 9.61328 16.1641 9.61328 15.9776V15.2177V10.0226C9.61328 9.83591 9.77321 9.67712 9.96075 9.67712H15.8801C16.0679 9.67712 16.2276 9.83615 16.2276 10.0226V10.7826V15.9776ZM25.7384 16.221C25.8001 16.1658 25.8409 16.0847 25.8409 15.9776V10.7826V10.0226C25.8409 9.83615 25.6812 9.67712 25.4934 9.67712H19.574C19.3865 9.67712 19.2266 9.83591 19.2266 10.0226V15.2177V15.9776C19.2266 16.1641 19.3862 16.3231 19.574 16.3231H25.4934C25.6011 16.3231 25.6828 16.2825 25.7384 16.221ZM6.51179 7.07505C6.57355 7.01983 6.6143 6.93868 6.6143 6.8316V1.63657V0.876645C6.6143 0.690156 6.45462 0.531128 6.26683 0.531128H0.347472C0.159928 0.531128 0 0.689909 0 0.876645V6.07168V6.8316C0 7.01809 0.15968 7.17712 0.347472 7.17712H6.26683C6.37458 7.17706 6.45623 7.13649 6.51179 7.07505ZM25.8409 6.8316C25.8409 6.93868 25.8001 7.01982 25.7384 7.07503C25.6828 7.13649 25.6011 7.17706 25.4934 7.17712H19.574C19.3862 7.17712 19.2266 7.01809 19.2266 6.8316V6.07168V0.876645C19.2266 0.689909 19.3865 0.531128 19.574 0.531128H25.4934C25.6812 0.531128 25.8409 0.690156 25.8409 0.876645V1.63657V6.8316ZM16.1251 25.367C16.1868 25.3118 16.2276 25.2307 16.2276 25.1236V19.9286V19.1686C16.2276 18.9821 16.0679 18.8231 15.8801 18.8231H9.96075C9.77321 18.8231 9.61328 18.9819 9.61328 19.1686V24.3637V25.1236C9.61328 25.3101 9.77296 25.4691 9.96075 25.4691H15.8801C15.9879 25.4691 16.0695 25.4285 16.1251 25.367ZM6.6143 25.1236C6.6143 25.2307 6.57355 25.3118 6.51179 25.367C6.45623 25.4285 6.37457 25.4691 6.26683 25.4691H0.347472C0.15968 25.4691 0 25.3101 0 25.1236V24.3637V19.1686C0 18.9819 0.159928 18.8231 0.347472 18.8231H6.26683C6.45462 18.8231 6.6143 18.9821 6.6143 19.1686V19.9286V25.1236ZM25.7384 25.367C25.8001 25.3118 25.8409 25.2307 25.8409 25.1236V19.9286V19.1686C25.8409 18.9821 25.6812 18.8231 25.4934 18.8231H19.574C19.3865 18.8231 19.2266 18.9819 19.2266 19.1686V24.3637V25.1236C19.2266 25.3101 19.3862 25.4691 19.574 25.4691H25.4934C25.6011 25.4691 25.6828 25.4285 25.7384 25.367Z" fill="black"/>
</svg>