<svg xmlns="http://www.w3.org/2000/svg" width="38" height="30" viewBox="0 0 38 30" fill="none">
<path d="M24.8114 25.5181L17.6469 27.9003V12.1061L24.9176 9.67101C24.961 9.67008 25.0035 9.65746 25.041 9.63531L31.7646 7.39436V16.4117C31.7646 16.8989 32.1597 17.294 32.6468 17.294C33.1343 17.294 33.5291 16.8989 33.5291 16.4117V6.17639C33.5288 6.07976 33.511 5.98405 33.4762 5.89389C33.4534 5.80372 33.4113 5.71971 33.3528 5.64708C33.3079 5.57569 33.2475 5.51537 33.1764 5.47044C33.1417 5.43689 33.0992 5.41258 33.0527 5.39996C33.0173 5.36457 32.9644 5.36457 32.9293 5.34703L32.841 5.31164H32.8235L17.153 0.0880146L17.0471 0.0526244C16.9631 0.0178493 16.8732 0.000308037 16.7825 0H16.7471C16.6563 0.0003078 16.5664 0.018157 16.4824 0.0529321L16.3765 0.0883224L8.62945 2.66472L8.43527 2.7352L0.688183 5.3116L0.599861 5.34699C0.56447 5.36453 0.511538 5.36453 0.476457 5.39992L0.37059 5.45285C0.360742 5.45285 0.353048 5.46085 0.353048 5.47039C0.27919 5.5064 0.222255 5.56979 0.194256 5.64704C0.117321 5.72551 0.0625403 5.82276 0.0351558 5.92923C0.0136137 6.00986 0.00191911 6.09295 7.32558e-05 6.17635V23.8235C-0.00485061 24.202 0.238877 24.5393 0.599863 24.6528L16.4295 29.9294C16.4436 29.9429 16.463 29.9494 16.4824 29.9469C16.664 30.0177 16.8656 30.0177 17.0471 29.9469L17.1001 29.9294L25.3761 27.1763C25.7792 26.9834 25.9743 26.5193 25.8303 26.0965C25.6863 25.6733 25.2487 25.4252 24.8114 25.5181ZM16.7646 1.80086L29.8763 6.17727L24.7056 7.90676L11.594 3.53004L16.7646 1.80086ZM15.882 27.9005L1.76435 23.1889V7.39476L15.882 12.1066V27.9005ZM16.7643 10.5535L3.65267 6.17711L8.82335 4.44761L21.935 8.82434L16.7643 10.5535ZM33.9135 18.9304C33.0786 18.9255 32.272 19.2344 31.6532 19.7952C31.0331 19.2351 30.2262 18.9268 29.3907 18.9307C28.5346 18.9408 27.7187 19.2957 27.1273 19.9145C26.5355 20.5334 26.2179 21.3643 26.2462 22.2198C26.2462 24.4152 28.2739 26.03 31.1396 28.07C31.4464 28.2888 31.8581 28.2888 32.165 28.07C35.0307 26.03 37.0583 24.4152 37.0583 22.2198C37.0864 21.3643 36.7688 20.5334 36.1773 19.9145C35.5855 19.2956 34.7697 18.9405 33.9135 18.9304Z" fill="black"/>
</svg>