<svg xmlns="http://www.w3.org/2000/svg" width="28" height="28" viewBox="0 0 28 28" fill="none">
<path d="M13.9999 0.00010874C10.2869 0.00010874 6.72603 1.47516 4.10049 4.1006C1.475 6.72625 0 10.287 0 14.0001C0 17.7131 1.47505 21.274 4.10049 23.8995C6.72614 26.525 10.2869 28 13.9999 28C17.713 28 21.2739 26.5249 23.8994 23.8995C26.5249 21.2739 27.9999 17.7131 27.9999 14.0001C27.9959 10.2883 26.5196 6.7294 23.8949 4.10495C21.2703 1.48033 17.7118 0.00402174 13.9998 0L13.9999 0.00010874ZM13.9999 20.0871C12.3857 20.0871 10.8374 19.4457 9.69587 18.3042C8.55435 17.1627 7.91299 15.6144 7.91299 14.0001C7.91299 12.3858 8.55435 10.8376 9.69587 9.69603C10.8374 8.55451 12.3857 7.91315 13.9999 7.91315C15.6142 7.91315 17.1625 8.55451 18.304 9.69603C19.4455 10.8376 20.0869 12.3858 20.0869 14.0001C20.0869 15.6144 19.4455 17.1627 18.304 18.3042C17.1625 19.4457 15.6142 20.0871 13.9999 20.0871ZM21.6086 11.7996L24.8712 8.52174C25.7168 10.1961 26.1628 12.0435 26.1745 13.9191C26.1859 15.7948 25.7628 17.6475 24.9383 19.3323L21.6422 16.0483C22.0192 14.6509 22.0044 13.177 21.5995 11.7875L21.6086 11.7996ZM23.9034 6.92989L20.8295 10.0037V10.004C20.0956 8.75695 19.0362 7.73326 17.7648 7.04266L20.8507 3.95652C22.0302 4.76114 23.0601 5.76527 23.8942 6.92402L23.9034 6.92989ZM19.2103 3.00092L15.893 6.31826C14.5969 5.99791 13.241 6.01149 11.9517 6.35775L8.65853 3.06481C10.2993 2.2615 12.1003 1.83862 13.9271 1.82753C15.7541 1.81649 17.5599 2.21752 19.2103 3.0009L19.2103 3.00092ZM7.03641 4.02353L10.1196 7.10652C8.86022 7.81875 7.8187 8.86033 7.10647 10.1196L4.02348 7.03647C4.8444 5.86418 5.86408 4.84451 7.03641 4.02353ZM3.06478 8.65859L6.35772 11.9517C6.01146 13.241 5.99787 14.597 6.31823 15.893L3.00089 19.2104C2.21752 17.56 1.81649 15.7542 1.82752 13.9272C1.83856 12.1004 2.26146 10.2995 3.06481 8.65864L3.06478 8.65859ZM3.95641 20.851L7.03641 17.7559C7.72701 19.0274 8.75071 20.0867 9.99772 20.8207L6.92386 23.8945C5.76516 23.0604 4.76098 22.0305 3.95636 20.851L3.95641 20.851ZM8.52163 24.8715L11.7995 21.6089C13.1889 22.0138 14.6631 22.0286 16.0602 21.6516L19.3412 24.9354C17.6556 25.7621 15.8012 26.1865 13.9239 26.1754C12.0465 26.1643 10.1972 25.7181 8.52158 24.8715L8.52163 24.8715ZM20.9542 23.9766L17.8802 20.8936C19.1396 20.1814 20.1811 19.1398 20.8933 17.8805L23.9763 20.9637C23.1554 22.136 22.1357 23.1557 20.9634 23.9766H20.9542Z" fill="black"/>
</svg>