<svg version="1.1" id="Layer_1" xmlns="http://www.w3.org/2000/svg" xmlns:xlink="http://www.w3.org/1999/xlink" x="0px" y="0px"
	 width="100%" viewBox="0 0 800 592" enable-background="new 0 0 800 592" xml:space="preserve">
<path fill="#000000" opacity="1.000000" stroke="none" 
	d="
M295.729401,244.012039 
	C295.749512,240.015442 295.656006,236.510529 295.823303,233.018127 
	C295.982330,229.698273 297.826294,227.832016 301.237976,227.721481 
	C302.569946,227.678299 303.903992,227.690628 305.237091,227.690613 
	C369.065033,227.689606 432.892975,227.689178 496.720917,227.691269 
	C505.491211,227.691544 506.272461,228.440460 506.273163,236.963074 
	C506.276581,279.626129 506.274536,322.289185 506.265442,364.952240 
	C506.263611,373.558472 505.496124,374.300598 496.791626,374.300812 
	C432.963684,374.302429 369.135773,374.303589 305.307831,374.302917 
	C296.476990,374.302826 295.745117,373.561127 295.743103,364.498566 
	C295.734161,324.502106 295.733398,284.505646 295.729401,244.012039 
M318.512756,365.063141 
	C375.650818,365.061188 432.788849,365.065430 489.926910,365.049194 
	C496.835602,365.047241 496.883820,364.996002 496.888580,358.114136 
	C496.914948,319.966644 496.918182,281.819122 496.923340,243.671631 
	C496.924225,237.048782 496.838226,236.953156 490.252350,236.952118 
	C430.948761,236.942749 371.645142,236.938583 312.341553,236.942642 
	C305.111359,236.943130 305.090546,236.969711 305.087799,244.118683 
	C305.073853,280.267212 305.020630,316.415802 305.090240,352.564178 
	C305.118469,367.209595 303.376526,364.707245 318.512756,365.063141 
z"/>
<path fill="#000000" opacity="1.000000" stroke="none" 
	d="
M471.999207,360.944183 
	C418.102905,360.943848 364.706421,360.943848 311.491364,360.943848 
	C310.905029,358.211945 312.234253,357.217896 313.074524,356.069061 
	C324.287720,340.737732 335.494202,325.401154 346.784851,310.126862 
	C352.783752,302.011414 358.003845,302.165558 364.192352,310.236542 
	C368.308105,315.604279 371.781555,321.493652 376.552368,326.280579 
	C378.737732,325.466400 379.485443,323.685638 380.543518,322.251343 
	C391.621735,307.234467 402.634338,292.169128 413.735168,277.169037 
	C419.507599,269.368958 425.128540,269.252350 430.862915,277.013855 
	C450.465424,303.545898 469.953247,330.162720 489.480225,356.750549 
	C490.155212,357.669647 491.008942,358.537048 490.544739,360.476074 
	C484.692474,361.408661 478.567505,360.706055 471.999207,360.944183 
z"/>
<path fill="#000000" opacity="1.000000" stroke="none" 
	d="
M338.677277,277.995056 
	C332.165009,281.555359 326.081696,281.261780 320.666351,276.838654 
	C315.994751,273.022949 313.840668,267.786774 315.183533,261.730133 
	C316.637085,255.174438 320.719238,250.897446 327.421478,249.404022 
	C333.249237,248.105484 340.034363,251.035568 343.358673,256.251312 
	C347.037537,262.023346 346.908295,268.710693 342.866119,273.923920 
	C341.759521,275.351105 340.295715,276.501312 338.677277,277.995056 
z"/>
</svg>