<svg xmlns="http://www.w3.org/2000/svg" width="36" height="36" viewBox="0 0 36 36" fill="none"><script xmlns=""/>
  <rect width="36" height="36" rx="18" fill="#1877F2"/>
  <path fill-rule="evenodd" clip-rule="evenodd" d="M10.8 18.04C10.8 21.6196 13.3998 24.5962 16.8 25.1998V19.9996H15V17.9998H16.8V16.3996C16.8 14.5996 17.9598 13.6 19.6002 13.6C20.1198 13.6 20.6802 13.6798 21.1998 13.7596V15.5998H20.28C19.3998 15.5998 19.2 16.0396 19.2 16.6V17.9998H21.12L20.8002 19.9996H19.2V25.1998C22.6002 24.5962 25.2 21.6202 25.2 18.04C25.2 14.0578 21.96 10.7998 18 10.7998C14.04 10.7998 10.8 14.0578 10.8 18.04Z" fill="white"/>
</svg>