<svg width="24" height="24" viewBox="0 0 24 24" fill="none" xmlns="http://www.w3.org/2000/svg">
<path d="M5.25 3C4.38805 3 3.5614 3.34241 2.9519 3.9519C2.34241 4.5614 2 5.38805 2 6.25V15.25C2 16.112 2.34241 16.9386 2.9519 17.5481C3.5614 18.1576 4.38805 18.5 5.25 18.5H15.75C16.612 18.5 17.4386 18.1576 18.0481 17.5481C18.6576 16.9386 19 16.112 19 15.25V6.25C19 5.38805 18.6576 4.5614 18.0481 3.9519C17.4386 3.34241 16.612 3 15.75 3H5.25ZM8 13.25V7.751C8.00004 7.61639 8.03632 7.48427 8.10501 7.36851C8.17371 7.25275 8.27229 7.1576 8.39042 7.09307C8.50855 7.02853 8.64188 6.99697 8.7764 7.00171C8.91093 7.00645 9.0417 7.04731 9.155 7.12L13.773 10.079C13.8436 10.1242 13.9017 10.1865 13.9419 10.2601C13.9822 10.3336 14.0033 10.4161 14.0033 10.5C14.0033 10.5839 13.9822 10.6664 13.9419 10.7399C13.9017 10.8135 13.8436 10.8758 13.773 10.921L9.155 13.88C9.0417 13.9527 8.91093 13.9935 8.7764 13.9983C8.64188 14.003 8.50855 13.9715 8.39042 13.9069C8.27229 13.8424 8.17371 13.7473 8.10501 13.6315C8.03632 13.5157 8.00004 13.3836 8 13.249V13.25ZM7.75 21C7.204 21.0005 6.6667 20.8633 6.18777 20.6011C5.70884 20.339 5.30377 19.9602 5.01 19.5H16.25C17.2446 19.5 18.1984 19.1049 18.9017 18.4017C19.6049 17.6984 20 16.7446 20 15.75V6.01C20.4602 6.30377 20.839 6.70884 21.1011 7.18777C21.3633 7.6667 21.5005 8.204 21.5 8.75V15.75C21.5 18.65 19.15 21 16.25 21H7.75Z" fill="#222222"/>
</svg>
