<svg width="19" height="17" viewBox="0 0 19 17" fill="none" xmlns="http://www.w3.org/2000/svg">
<g clip-path="url(#clip0_281_1565)">
<path d="M11.0376 6.92884C10.9216 19.4105 12.4716 5.69213 17.109 4.69287C18.8939 4.30664 18.6896 5.62976 17.5409 5.9835C17.4387 6.01307 17.3592 6.01853 17.3002 5.99851C17.2403 5.97477 17.2221 5.90874 17.2491 5.79902C17.2819 5.65607 17.2841 5.52589 17.2557 5.40952C16.5285 2.55908 13.5818 12.3165 10.5613 12.6768C10.4811 12.6848 10.4001 12.6848 10.3236 12.6768C10.1063 12.6557 9.9217 12.5484 9.76484 12.3522C9.64526 12.191 9.54091 11.9605 9.45489 11.6593C9.40379 11.4514 9.37176 11.2136 9.35054 10.9481C9.33306 10.6812 9.32941 10.396 9.34473 10.0925C9.27032 10.2085 9.19303 10.3252 9.11573 10.4398C9.03843 10.5593 8.95745 10.6753 8.87793 10.7913C8.34218 11.5433 7.85131 12.1254 7.40818 12.536C6.92898 12.9612 6.50667 13.1932 6.14638 13.2347C6.06616 13.2471 5.98624 13.2471 5.90819 13.2347C5.72117 13.2173 5.56941 13.1545 5.4502 13.0509C5.5337 13.0298 5.61683 13.0058 5.6978 12.9824C8.48697 12.0699 11.0493 5.41279 11.0376 6.92884Z" fill="#003D68"/>
<path d="M5.30456 11.4748C5.34654 11.2793 5.39724 11.0707 5.45961 10.8482C5.54311 10.5535 5.6317 10.2501 5.7273 9.93505C8.25532 1.53287 1.58869 3.59847 1.43736 7.31868C1.42243 7.67501 1.46724 7.98431 1.57083 8.2458C1.67481 8.5076 1.83598 8.70089 2.05877 8.82271C2.28269 8.9449 2.57338 8.93907 2.9304 8.80778C3.0077 8.78149 3.05222 8.826 3.06463 8.9449C3.11496 9.49446 2.56794 9.99413 2.05079 9.99996C1.75794 10.0029 1.50846 9.9438 1.29732 9.82197C1.08656 9.69724 0.916253 9.53098 0.788247 9.32014C0.657308 9.10496 0.568667 8.86177 0.515027 8.58169C0.464388 8.30519 0.449457 8.01384 0.473133 7.7144C0.497552 7.40988 0.55918 7.10097 0.657325 6.79213C0.755774 6.4803 0.895812 6.18595 1.07089 5.91506C1.98769 4.45257 3.86772 3.43873 5.60804 3.60469C5.90307 3.63165 6.18502 3.70022 6.45591 3.80746C7.63025 4.27972 8.00257 5.07658 8.01722 6.25385C8.01722 7.73159 7.48551 11.35 5.70648 11.4726C5.57299 11.4813 5.43877 11.4813 5.30456 11.4748Z" fill="#D1563F"/>
</g>
<defs>
<clipPath id="clip0_281_1565">
<rect width="18.6667" height="16" fill="white" transform="translate(0 0.526611)"/>
</clipPath>
</defs>
</svg>
