<svg width="24" height="25" viewBox="0 0 24 25" fill="none" xmlns="http://www.w3.org/2000/svg">
<rect y="0.315918" width="24" height="24" rx="12" fill="black"/>
<g clip-path="url(#clip0_324_2377)">
<path fill-rule="evenodd" clip-rule="evenodd" d="M11.474 6.94092H12.526C12.975 6.94092 13.35 6.94092 13.647 6.98092C13.961 7.02292 14.2445 7.11592 14.472 7.34342C14.7 7.57142 14.793 7.85492 14.835 8.16842C14.875 8.46592 14.875 8.84092 14.875 9.28992V9.95642L15.295 10.1854C15.5907 10.3467 15.8375 10.5847 16.0094 10.8744C16.1813 11.164 16.272 11.4946 16.272 11.8314V14.3004C16.272 14.6373 16.1812 14.9679 16.0092 15.2576C15.8372 15.5472 15.5903 15.7852 15.2945 15.9464L12.8975 17.2534C12.6222 17.4035 12.3136 17.4822 12 17.4822C11.6864 17.4822 11.3779 17.4035 11.1025 17.2534L8.70503 15.9464C8.40935 15.7851 8.16258 15.5471 7.99067 15.2575C7.81875 14.9678 7.72802 14.6372 7.72803 14.3004V11.8309C7.7282 11.4943 7.81901 11.1639 7.99092 10.8744C8.16283 10.585 8.4095 10.3472 8.70503 10.1859L9.12503 9.95692V9.28992C9.12503 8.84092 9.12503 8.46592 9.16503 8.16892C9.20703 7.85492 9.30003 7.57142 9.52753 7.34392C9.75553 7.11592 10.039 7.02292 10.3525 6.98092C10.65 6.94092 11.0245 6.94092 11.474 6.94092ZM9.87503 9.54742L11.1025 8.87842C11.3779 8.72831 11.6864 8.64966 12 8.64966C12.3136 8.64966 12.6222 8.72831 12.8975 8.87842L14.125 9.54742V9.31592C14.125 8.83392 14.124 8.50992 14.0915 8.26842C14.0605 8.03792 14.007 7.93892 13.9415 7.87392C13.8765 7.80892 13.778 7.75542 13.547 7.72392C13.3055 7.69192 12.982 7.69092 12.5 7.69092H11.5C11.018 7.69092 10.694 7.69192 10.4525 7.72442C10.222 7.75542 10.123 7.80892 10.0575 7.87442C9.99253 7.93942 9.93903 8.03792 9.90803 8.26842C9.87553 8.50992 9.87503 8.83392 9.87503 9.31592V9.54742ZM12.5385 9.53692C12.3733 9.44686 12.1882 9.39966 12 9.39966C11.8119 9.39966 11.6267 9.44686 11.4615 9.53692L9.06403 10.8439C8.88667 10.9407 8.73866 11.0835 8.63555 11.2573C8.53244 11.431 8.47802 11.6294 8.47803 11.8314V14.3004C8.47803 14.7119 8.70303 15.0909 9.06403 15.2879L11.4615 16.5949C11.6267 16.685 11.8119 16.7322 12 16.7322C12.1882 16.7322 12.3733 16.685 12.5385 16.5949L14.9355 15.2879C15.113 15.1912 15.2611 15.0484 15.3643 14.8747C15.4675 14.7009 15.522 14.5025 15.522 14.3004V11.8309C15.522 11.6288 15.4675 11.4305 15.3643 11.2567C15.2611 11.0829 15.113 10.9402 14.9355 10.8434L12.5385 9.53692ZM12 12.0834C11.971 12.1334 11.9385 12.1914 11.9 12.2599L11.851 12.3479C11.848 12.3544 11.844 12.3609 11.84 12.3679C11.801 12.4399 11.736 12.5589 11.6275 12.6414C11.5165 12.7254 11.3835 12.7544 11.3055 12.7714L11.284 12.7764L11.189 12.7974C11.101 12.8174 11.0295 12.8334 10.969 12.8489C11.0085 12.8979 11.06 12.9584 11.127 13.0369L11.192 13.1129C11.197 13.1179 11.202 13.1239 11.207 13.1304C11.261 13.1924 11.348 13.2929 11.3885 13.4224C11.4285 13.5504 11.4145 13.6824 11.406 13.7654C11.4051 13.7732 11.4043 13.7811 11.4035 13.7889L11.3935 13.8904C11.386 13.967 11.379 14.0437 11.3725 14.1204C11.425 14.0979 11.484 14.0704 11.5545 14.0379L11.644 13.9969L11.664 13.9874C11.7355 13.9534 11.8605 13.8949 12 13.8949C12.139 13.8949 12.264 13.9534 12.336 13.9874L12.356 13.9969L12.4455 14.0379C12.5155 14.0704 12.5755 14.0979 12.627 14.1204C12.622 14.0594 12.6155 13.9844 12.6065 13.8904L12.5965 13.7889C12.5957 13.7811 12.5949 13.7732 12.594 13.7654C12.5855 13.6824 12.5715 13.5504 12.6115 13.4224C12.6515 13.2924 12.739 13.1924 12.793 13.1304L12.808 13.1129L12.873 13.0369C12.94 12.9584 12.9915 12.8979 13.031 12.8489C12.97 12.8339 12.899 12.8174 12.811 12.7974L12.716 12.7759C12.7087 12.7742 12.7014 12.7725 12.694 12.7709C12.6165 12.7544 12.483 12.7254 12.3725 12.6409C12.264 12.5589 12.199 12.4399 12.1595 12.3684C12.1559 12.3617 12.1522 12.3551 12.1485 12.3484L12.0995 12.2599C12.0669 12.2007 12.0336 12.1418 11.9995 12.0834H12ZM11.5065 11.4659C11.5925 11.3534 11.749 11.1909 12 11.1909C12.251 11.1909 12.407 11.3534 12.493 11.4659C12.5755 11.5729 12.658 11.7214 12.743 11.8739L12.7545 11.8949L12.8035 11.9829L12.832 12.0329L12.881 12.0444L12.9765 12.0659L13 12.0709C13.164 12.1084 13.327 12.1454 13.452 12.1944C13.59 12.2489 13.777 12.3544 13.8495 12.5869C13.9205 12.8149 13.831 13.0074 13.7525 13.1319C13.6805 13.2469 13.5705 13.3749 13.458 13.5064L13.443 13.5244L13.378 13.6004L13.3365 13.6489L13.343 13.7164L13.353 13.8179L13.355 13.8409C13.372 14.0169 13.3885 14.1874 13.3825 14.3234C13.376 14.4659 13.342 14.6819 13.1485 14.8284C12.9485 14.9804 12.7285 14.9474 12.5885 14.9074C12.4595 14.8704 12.307 14.7999 12.1535 14.7294C12.1462 14.7261 12.1389 14.7227 12.1315 14.7194L12.0425 14.6784L12 14.6584L11.9575 14.6784L11.868 14.7194L11.846 14.7294C11.6925 14.7999 11.5405 14.8704 11.4115 14.9074C11.2715 14.9474 11.0515 14.9804 10.8515 14.8289C10.658 14.6819 10.6235 14.4659 10.6175 14.3234C10.611 14.1874 10.6275 14.0169 10.645 13.8414L10.647 13.8179L10.657 13.7164C10.6595 13.6884 10.662 13.6669 10.663 13.6489C10.6495 13.6327 10.6358 13.6165 10.622 13.6004L10.557 13.5244L10.542 13.5064C10.429 13.3749 10.3195 13.2464 10.247 13.1314C10.169 13.0074 10.0795 12.8149 10.1505 12.5864C10.2225 12.3549 10.4095 12.2489 10.548 12.1944C10.673 12.1454 10.8355 12.1084 10.9995 12.0714L11.023 12.0664L11.1185 12.0444L11.168 12.0329L11.196 11.9829L11.2455 11.8949L11.257 11.8739C11.342 11.7214 11.4245 11.5729 11.507 11.4659H11.5065Z" fill="url(#paint0_linear_324_2377)"/>
</g>
<defs>
<linearGradient id="paint0_linear_324_2377" x1="12" y1="6.94092" x2="12" y2="17.4822" gradientUnits="userSpaceOnUse">
<stop stop-color="#FFFCAC"/>
<stop offset="1" stop-color="#FFD12D"/>
</linearGradient>
<clipPath id="clip0_324_2377">
<rect width="12" height="12" fill="white" transform="translate(6 6.31592)"/>
</clipPath>
</defs>
</svg>
