<svg width="16" height="16" viewBox="0 0 16 16" fill="none" xmlns="http://www.w3.org/2000/svg">
<path d="M7.99967 8.00033C8.70692 8.00033 9.3852 7.71937 9.88529 7.21928C10.3854 6.71918 10.6663 6.0409 10.6663 5.33366C10.6663 4.62641 10.3854 3.94814 9.88529 3.44804C9.3852 2.94794 8.70692 2.66699 7.99967 2.66699C7.29243 2.66699 6.61415 2.94794 6.11406 3.44804C5.61396 3.94814 5.33301 4.62641 5.33301 5.33366C5.33301 6.0409 5.61396 6.71918 6.11406 7.21928C6.61415 7.71937 7.29243 8.00033 7.99967 8.00033Z" stroke="#222222" strokeLinecap="round" strokeLinejoin="round"/>
<path d="M3.33301 13.3333V12.6667C3.33285 11.8793 3.5319 11.1047 3.91163 10.415C4.29137 9.72526 4.83944 9.14282 5.50483 8.7219C6.17022 8.30097 6.93129 8.05524 7.7172 8.00758C8.50311 7.95992 9.2883 8.11188 9.99967 8.44932M11.1998 13.878L9.75183 14.6367C9.70886 14.659 9.66052 14.669 9.61221 14.6655C9.56389 14.662 9.51751 14.6451 9.47823 14.6167C9.43895 14.5884 9.40832 14.5497 9.38977 14.5049C9.37122 14.4602 9.36547 14.4111 9.37317 14.3633L9.64983 12.756L8.4785 11.618C8.44354 11.5842 8.41878 11.5412 8.40706 11.494C8.39534 11.4468 8.39712 11.3973 8.41221 11.3511C8.42729 11.3049 8.45507 11.2638 8.49237 11.2326C8.52968 11.2014 8.575 11.1813 8.62317 11.1746L10.2418 10.94L10.9658 9.47798C10.9875 9.43444 11.0209 9.3978 11.0622 9.37219C11.1035 9.34658 11.1512 9.33301 11.1998 9.33301C11.2485 9.33301 11.2961 9.34658 11.3375 9.37219C11.3788 9.3978 11.4122 9.43444 11.4338 9.47798L12.1578 10.94L13.7765 11.1746C13.8245 11.1816 13.8697 11.2018 13.9068 11.233C13.9439 11.2642 13.9716 11.3052 13.9867 11.3513C14.0017 11.3975 14.0035 11.4469 13.992 11.494C13.9804 11.5411 13.9559 11.5841 13.9212 11.618L12.7498 12.756L13.0258 14.3627C13.0341 14.4106 13.0288 14.4598 13.0105 14.5049C12.9922 14.5499 12.9616 14.5889 12.9222 14.6175C12.8829 14.646 12.8363 14.6629 12.7878 14.6663C12.7393 14.6697 12.6908 14.6594 12.6478 14.6367L11.1998 13.878Z" stroke="#222222" strokeLinecap="round" strokeLinejoin="round"/>
</svg>
