<svg width="24" height="25" viewBox="0 0 24 25" fill="none" xmlns="http://www.w3.org/2000/svg">
<rect y="0.315918" width="24" height="24" rx="12" fill="black"/>
<g clip-path="url(#clip0_324_2380)">
<path fill-rule="evenodd" clip-rule="evenodd" d="M12 6.94104C11.086 6.94104 10.3305 7.02154 9.749 7.11954L9.682 7.13104C9.177 7.21554 8.757 7.28604 8.4285 7.69004C8.2185 7.94954 8.15 8.23004 8.1345 8.54254L7.8885 8.62454C7.657 8.70154 7.4535 8.76954 7.293 8.84454C7.119 8.92554 6.9595 9.02954 6.8375 9.19904C6.7155 9.36804 6.667 9.55254 6.645 9.74304C6.625 9.91954 6.625 10.133 6.625 10.3775V10.45C6.625 10.651 6.625 10.8285 6.64 10.977C6.656 11.1375 6.6915 11.294 6.78 11.445C6.8695 11.5965 6.9885 11.7035 7.1215 11.7955C7.244 11.8805 7.399 11.967 7.575 12.0645L8.895 12.798C9.165 13.3285 9.5355 13.8015 10.045 14.143C10.4885 14.441 11.021 14.628 11.6515 14.6775C11.634 14.7216 11.625 14.7686 11.625 14.816V15.691H10.91C10.7077 15.691 10.5117 15.7611 10.3552 15.8894C10.1988 16.0177 10.0916 16.1962 10.052 16.3945L9.9425 16.941H9C8.90054 16.941 8.80516 16.9805 8.73483 17.0509C8.66451 17.1212 8.625 17.2166 8.625 17.316C8.625 17.4155 8.66451 17.5109 8.73483 17.5812C8.80516 17.6515 8.90054 17.691 9 17.691H15C15.0995 17.691 15.1948 17.6515 15.2652 17.5812C15.3355 17.5109 15.375 17.4155 15.375 17.316C15.375 17.2166 15.3355 17.1212 15.2652 17.0509C15.1948 16.9805 15.0995 16.941 15 16.941H14.0575L13.948 16.3945C13.9084 16.1962 13.8012 16.0177 13.6448 15.8894C13.4883 15.7611 13.2923 15.691 13.09 15.691H12.375V14.816C12.375 14.7686 12.366 14.7216 12.3485 14.6775C12.979 14.6275 13.5115 14.441 13.955 14.1435C14.465 13.8015 14.835 13.3285 15.105 12.798L16.425 12.0645C16.601 11.967 16.756 11.8805 16.8785 11.7955C17.011 11.7035 17.1305 11.5965 17.2195 11.4455C17.3085 11.294 17.3445 11.1375 17.36 10.977C17.375 10.8285 17.375 10.651 17.375 10.45V10.3775C17.375 10.1335 17.375 9.91954 17.355 9.74304C17.333 9.55254 17.285 9.36804 17.1625 9.19904C17.0405 9.02954 16.881 8.92554 16.7075 8.84404C16.546 8.76904 16.343 8.70154 16.1115 8.62454L15.8655 8.54254C15.8505 8.22954 15.782 7.94954 15.5715 7.69004C15.2435 7.28554 14.8235 7.21504 14.3185 7.13104L14.251 7.11954C13.5069 6.99756 12.754 6.93786 12 6.94104ZM13.2925 16.941L13.2125 16.5415C13.2068 16.5132 13.1915 16.4877 13.1692 16.4694C13.1469 16.4511 13.1189 16.4411 13.09 16.441H10.91C10.8811 16.4411 10.8531 16.4511 10.8308 16.4694C10.8085 16.4877 10.7932 16.5132 10.7875 16.5415L10.7075 16.941H13.2925ZM8.144 9.33004L8.151 9.32754C8.187 10.0875 8.2725 10.9275 8.4865 11.7125L7.9535 11.417C7.759 11.3085 7.637 11.2405 7.549 11.1795C7.468 11.123 7.4415 11.0895 7.427 11.0645C7.412 11.0395 7.396 11.0005 7.386 10.9025C7.3754 10.7464 7.37173 10.59 7.375 10.4335V10.397C7.375 10.1275 7.3755 9.95704 7.39 9.82804C7.404 9.70904 7.426 9.66454 7.446 9.63754C7.4655 9.61004 7.5005 9.57504 7.609 9.52454C7.727 9.46954 7.889 9.41554 8.144 9.33004ZM15.849 9.32754C15.8135 10.0875 15.7275 10.9275 15.514 11.7125L16.0465 11.417C16.241 11.3085 16.363 11.2405 16.451 11.1795C16.532 11.123 16.5585 11.0895 16.573 11.0645C16.588 11.0395 16.604 11.0005 16.614 10.9025C16.6245 10.7955 16.625 10.656 16.625 10.4335V10.397C16.625 10.1275 16.6245 9.95704 16.61 9.82804C16.596 9.70904 16.574 9.66454 16.554 9.63754C16.5345 9.61004 16.4995 9.57504 16.391 9.52454C16.273 9.46954 16.111 9.41504 15.856 9.32954L15.849 9.32754ZM9.874 7.85904C10.5768 7.74406 11.2879 7.68786 12 7.69104C12.87 7.69104 13.5835 7.76754 14.126 7.85904C14.7295 7.96104 14.856 7.99904 14.9895 8.16304C15.1205 8.32404 15.133 8.47704 15.106 9.15454C15.061 10.2835 14.912 11.5025 14.451 12.4295C14.223 12.8865 13.925 13.2605 13.5375 13.5205C13.152 13.779 12.6545 13.941 12 13.941C11.3455 13.941 10.8485 13.779 10.463 13.5205C10.075 13.2605 9.777 12.8865 9.5495 12.429C9.088 11.5025 8.9395 10.284 8.8945 9.15404C8.8675 8.47704 8.8795 8.32404 9.011 8.16304C9.144 7.99904 9.2705 7.96104 9.874 7.85904Z" fill="url(#paint0_linear_324_2380)"/>
</g>
<defs>
<linearGradient id="paint0_linear_324_2380" x1="12" y1="6.94092" x2="12" y2="17.691" gradientUnits="userSpaceOnUse">
<stop stop-color="#FD7EF6"/>
<stop offset="1" stop-color="#FDAC81"/>
</linearGradient>
<clipPath id="clip0_324_2380">
<rect width="12" height="12" fill="white" transform="translate(6 6.31592)"/>
</clipPath>
</defs>
</svg>
