<svg width="24" height="25" viewBox="0 0 24 25" fill="none" xmlns="http://www.w3.org/2000/svg">
<rect y="0.315918" width="24" height="24" rx="12" fill="black"/>
<path d="M8.03126 8.87744C7.61009 9.01924 7.27433 9.30433 7.14943 9.58917C7.07876 9.7503 7.06787 9.90417 7.12627 10.0609C7.13295 10.0789 7.1408 10.097 7.14962 10.1153C7.21448 10.075 7.28098 10.0373 7.34893 10.0025L7.49605 9.92714L7.60435 10.052C7.72475 10.1907 7.82958 10.3419 7.91893 10.5002C7.97923 10.4285 8.04097 10.3159 8.08416 10.1712C8.18942 9.81886 8.18546 9.3052 8.03126 8.87744ZM15.9687 8.87744C15.8145 9.30518 15.8105 9.81886 15.9158 10.1712C15.959 10.3159 16.0207 10.4285 16.081 10.5002C16.1704 10.3419 16.2752 10.1907 16.3956 10.052L16.5039 9.92714L16.651 10.0025C16.719 10.0373 16.7855 10.075 16.8504 10.1153C16.8591 10.097 16.867 10.0789 16.8737 10.0609C16.9321 9.90417 16.9212 9.7503 16.8505 9.58917C16.7256 9.30433 16.3899 9.01924 15.9687 8.87744ZM7.39116 10.4651C6.91653 10.7577 6.59145 11.2028 6.52993 11.5895C6.49601 11.8027 6.53204 11.9932 6.65469 12.1647C6.69359 12.2192 6.74241 12.2724 6.80244 12.3232C6.88219 12.1991 6.97186 12.0817 7.07056 11.9722L7.18119 11.8493L7.3269 11.9274C7.51229 12.0267 7.6846 12.1483 7.84112 12.2849C7.86392 12.1997 7.87906 12.0999 7.88267 11.9892C7.89758 11.5336 7.72416 10.9219 7.39116 10.4651ZM16.6088 10.4651C16.2758 10.9219 16.1024 11.5336 16.1173 11.9892C16.1209 12.0999 16.136 12.1997 16.1588 12.2849C16.3154 12.1483 16.4877 12.0267 16.6731 11.9274L16.8188 11.8493L16.9294 11.9722C17.0281 12.0817 17.1178 12.1991 17.1975 12.3232C17.2575 12.2724 17.3064 12.2192 17.3453 12.1647C17.4679 11.9932 17.504 11.8027 17.47 11.5895C17.4085 11.2028 17.0834 10.7577 16.6088 10.4651ZM7.27498 12.3893C6.93762 12.83 6.79461 13.3599 6.87645 13.7427C6.92164 13.954 7.02406 14.1196 7.20092 14.2368C7.3168 14.3135 7.46998 14.3703 7.66826 14.3925C7.71253 14.2488 7.76818 14.1089 7.83469 13.9741L7.90794 13.8255L8.06965 13.8615C8.16563 13.8829 8.26027 13.9095 8.35311 13.9407C8.34437 13.8507 8.32243 13.7488 8.28455 13.6402C8.13418 13.209 7.75137 12.6984 7.27498 12.3893ZM16.725 12.3893C16.2486 12.6984 15.8658 13.209 15.7154 13.6402C15.6775 13.7488 15.6556 13.8507 15.6469 13.9407C15.7399 13.9093 15.8345 13.8829 15.9303 13.8615L16.092 13.8255L16.1653 13.9741C16.2318 14.1089 16.2874 14.2488 16.3317 14.3925C16.53 14.3704 16.6832 14.3135 16.799 14.2368C16.9759 14.1196 17.0783 13.954 17.1235 13.7427C17.2054 13.3599 17.0623 12.83 16.725 12.3893ZM8.14451 14.3204C7.9269 14.8627 7.93294 15.4419 8.1279 15.8096C8.23501 16.0116 8.38819 16.1519 8.60293 16.2212C8.71041 16.2559 8.8363 16.2725 8.98226 16.2635C8.93223 16.002 8.91732 15.7251 8.94111 15.4446L8.95522 15.2788L9.11975 15.2538C9.22428 15.2381 9.32957 15.2278 9.43517 15.2231C9.44815 15.2225 9.46112 15.2222 9.47408 15.2217C9.18301 14.852 8.67994 14.4851 8.14451 14.3204ZM15.8555 14.3204C15.32 14.4851 14.8169 14.8519 14.5259 15.2217C14.5388 15.2222 14.5518 15.2225 14.5648 15.2231C14.6702 15.2279 14.7756 15.238 14.8802 15.2538L15.0448 15.2788L15.0588 15.4446C15.0826 15.7251 15.0677 16.002 15.0177 16.2635C15.1637 16.2725 15.2896 16.2559 15.397 16.2212C15.6118 16.1519 15.765 16.0116 15.8721 15.8096C16.067 15.4418 16.0731 14.8627 15.8555 14.3204ZM12 15.5268C11.9195 15.5268 11.8679 15.5522 11.8045 15.6181C11.7411 15.6839 11.6781 15.7943 11.6281 15.9297C11.5281 16.2006 11.4794 16.5626 11.4604 16.8308C11.4353 17.1834 11.5307 17.6129 11.7483 17.7697C11.8592 17.8497 12.1407 17.8497 12.2517 17.7697C12.4693 17.6129 12.5647 17.1834 12.5396 16.8308C12.5205 16.5626 12.4718 16.2006 12.3719 15.9297C12.3219 15.7943 12.2588 15.6839 12.1955 15.6181C12.1321 15.5522 12.0805 15.5268 12 15.5268ZM9.57371 15.6435C9.53354 15.6433 9.49346 15.644 9.45355 15.6456C9.42062 15.6469 9.38862 15.6522 9.35595 15.6547C9.34615 16.3067 9.58601 16.9096 9.94175 17.2167C10.1354 17.3839 10.3539 17.4692 10.6062 17.4547C10.7447 17.4468 10.8967 17.4072 11.0603 17.3254C11.0305 17.1457 11.028 16.964 11.0396 16.8009C11.0544 16.5925 11.083 16.333 11.1446 16.0772C10.7424 15.8267 10.1502 15.6461 9.57371 15.6435ZM14.4263 15.6435C13.8498 15.6461 13.2576 15.8268 12.8554 16.0772C12.917 16.333 12.9456 16.5925 12.9604 16.8009C12.972 16.9639 12.9695 17.1457 12.9397 17.3254C13.1033 17.4072 13.2553 17.4468 13.3938 17.4547C13.646 17.4692 13.8645 17.3839 14.0582 17.2167C14.414 16.9096 14.6538 16.3067 14.644 15.6547C14.6114 15.6522 14.5793 15.6469 14.5464 15.6456C14.5064 15.644 14.4663 15.6433 14.4263 15.6435Z" fill="#D4D4D4"/>
</svg>
