<svg xmlns="http://www.w3.org/2000/svg" width="36" height="36" viewBox="0 0 36 36" fill="none"><script xmlns=""/>
  <rect width="36" height="36" rx="18" fill="#0A66C2"/>
  <path d="M27.1296 23.2498C26.8689 23.2522 26.6199 23.3567 26.4369 23.5403C26.2539 23.7239 26.1519 23.9717 26.1531 24.2294C26.1544 24.4872 26.2588 24.734 26.4436 24.9159C26.6283 25.0977 26.8784 25.1998 27.1391 25.1998C27.3997 25.1998 27.6498 25.0977 27.8346 24.9159C28.0193 24.734 28.1238 24.4872 28.125 24.2294C28.1263 23.9717 28.0242 23.7239 27.8413 23.5403C27.6583 23.3567 27.4092 23.2522 27.1486 23.2498H27.1296ZM27.1296 25.0882C26.9586 25.091 26.7907 25.0436 26.6469 24.952C26.5032 24.8604 26.3901 24.7287 26.3221 24.5736C26.254 24.4185 26.234 24.2469 26.2646 24.0805C26.2951 23.9141 26.3749 23.7604 26.4938 23.6389C26.6127 23.5173 26.7653 23.4334 26.9324 23.3976C27.0996 23.3619 27.2737 23.376 27.4327 23.4381C27.5917 23.5002 27.7286 23.6075 27.826 23.7465C27.9233 23.8855 27.9768 24.05 27.9796 24.2191V24.2334C27.9844 24.4552 27.8999 24.6698 27.7448 24.83C27.5896 24.9902 27.3764 25.0829 27.1521 25.0877H27.1298L27.1296 25.0882ZM23.3449 22.9834H21.2025V19.6654C21.2025 18.8742 21.1882 17.8556 20.0883 17.8556C18.9724 17.8556 18.8017 18.7177 18.8017 19.6078V22.9831H16.6593V16.16H18.716V17.0925H18.7448C18.9506 16.7444 19.248 16.4581 19.6054 16.264C19.9627 16.0699 20.3666 15.9753 20.774 15.9903C22.9454 15.9903 23.3458 17.4028 23.3458 19.2403L23.3449 22.9834ZM14.242 15.2273C13.9961 15.2274 13.7557 15.1553 13.5512 15.0203C13.3467 14.8852 13.1873 14.6932 13.0932 14.4685C12.9991 14.2439 12.9744 13.9967 13.0223 13.7582C13.0703 13.5197 13.1886 13.3006 13.3625 13.1286C13.5363 12.9566 13.7578 12.8395 13.999 12.792C14.2401 12.7445 14.4901 12.7688 14.7173 12.8618C14.9445 12.9548 15.1387 13.1124 15.2754 13.3146C15.412 13.5167 15.485 13.7544 15.485 13.9976C15.485 14.1591 15.4529 14.319 15.3905 14.4681C15.328 14.6173 15.2364 14.7529 15.121 14.8671C15.0056 14.9813 14.8686 15.0718 14.7177 15.1337C14.5669 15.1955 14.4052 15.2273 14.242 15.2273ZM15.3132 22.9834H13.1685V16.16H15.3132V22.9834ZM24.413 10.8008H12.092C11.8123 10.7977 11.5429 10.9045 11.3428 11.0977C11.1427 11.291 11.0284 11.5549 11.025 11.8314V24.0668C11.0283 24.3435 11.1425 24.6076 11.3426 24.801C11.5427 24.9945 11.8122 25.1015 12.092 25.0985H24.413C24.6933 25.102 24.9636 24.9953 25.1645 24.8019C25.3653 24.6084 25.4803 24.344 25.4842 24.0668V11.8306C25.4802 11.5535 25.3651 11.2893 25.1643 11.096C24.9634 10.9027 24.6932 10.7962 24.413 10.7999V10.8008ZM27.286 24.2866C27.3227 24.287 27.3591 24.2799 27.3929 24.2657C27.4267 24.2516 27.4572 24.2308 27.4825 24.2045C27.5078 24.1783 27.5274 24.1471 27.5401 24.1131C27.5527 24.079 27.5582 24.0428 27.5561 24.0065C27.5561 23.8079 27.4349 23.713 27.1863 23.713H26.7846V24.7529H26.9357V24.2996H27.1213L27.1256 24.3051L27.4137 24.7529H27.5753L27.2653 24.2895L27.286 24.2866ZM27.1113 24.1824H26.9361V23.8309H27.1582C27.2729 23.8309 27.4036 23.8494 27.4036 23.9979C27.4036 24.1687 27.2713 24.1824 27.1104 24.1824" fill="white"/>
</svg>