<svg width="243" height="258" viewBox="0 0 243 258" fill="none" xmlns="http://www.w3.org/2000/svg">
<g clip-path="url(#clip0_974_1208)">
<path d="M148.973 19.7196C148.973 19.7196 120.433 8.34118 102.789 12.4451C97.5558 13.66 61.7063 32.1944 54.6194 33.0093C47.5325 33.8241 50.5274 45.4396 67.1178 42.8024C83.6934 40.1652 148.988 19.7196 148.988 19.7196H148.973Z" fill="url(#paint0_linear_974_1208)"/>
<path d="M98.4603 19.1862C93.5825 24.6828 87.1627 36.402 83.0263 44.7432C74.8274 50.8325 66.3765 56.7291 62.7145 58.181C54.5008 61.4257 50.9722 54.1956 52.3955 52.9067C53.8188 51.6325 69.0304 34.9945 69.0304 34.9945C69.0304 34.9945 81.6474 25.2162 87.1034 22.3419C89.2681 21.2159 93.79 20.1048 98.4603 19.1714V19.1862Z" fill="url(#paint1_linear_974_1208)"/>
<path d="M243 24.5347V50.2251L117.008 59.7071L113.197 45.7655C113.197 45.7655 104.85 48.7435 102.656 49.8102C102.656 49.8102 97.971 58.8033 94.5758 61.8257C94.5758 61.8257 92.4408 75.145 92.1739 76.1228C91.996 76.7155 92.9597 81.4565 91.7292 86.0493C90.9878 88.8347 89.4459 91.5756 86.3473 93.2794C86.2435 93.3386 86.1545 93.3979 86.0508 93.4424C77.5109 97.8574 78.4153 56.3736 78.8897 53.9734C79.3642 51.5881 94.724 19.5714 101.781 16.3564C108.334 13.3785 134.339 17.6454 139.084 17.6306C143.828 17.6158 182.109 26.5496 190.708 25.2162C196.105 24.3865 223.4 24.4014 243 24.5347Z" fill="url(#paint2_linear_974_1208)"/>
<path d="M100.862 127.563C114.97 127.563 126.407 116.134 126.407 102.035C126.407 87.9371 114.97 76.5081 100.862 76.5081C86.7537 76.5081 75.3167 87.9371 75.3167 102.035C75.3167 116.134 86.7537 127.563 100.862 127.563Z" fill="url(#paint3_linear_974_1208)"/>
<path d="M118.931 102.758C119.336 92.7834 111.572 84.3699 101.59 83.9658C91.609 83.5617 83.1896 91.32 82.7852 101.294C82.3808 111.269 90.1446 119.682 100.126 120.086C110.107 120.491 118.527 112.732 118.931 102.758Z" fill="url(#paint4_linear_974_1208)"/>
<g style="mix-blend-mode:multiply" opacity="0.45">
<path d="M88.8825 113.118C82.9817 105.058 84.7312 93.7535 92.7818 87.8421C96.429 85.1753 100.743 84.0789 104.91 84.4197C99.9576 83.2789 94.5757 84.2123 90.1576 87.4421C82.0921 93.3387 80.3427 104.658 86.2583 112.718C89.4904 117.133 94.3533 119.637 99.409 120.037C95.3319 119.103 91.5364 116.762 88.8677 113.118H88.8825Z" fill="#F48B0C"/>
</g>
<path d="M243 50.2251V63.6185L203.043 63.0999C194.978 62.9962 186.957 64.3889 179.411 67.2038C170.5 70.5374 158.802 75.0413 153.109 77.723C143.235 82.3899 108.601 93.8869 100.299 97.8278C91.9959 101.784 86.362 100.821 85.9468 95.6351C85.9024 94.9091 86.0358 94.1239 86.3323 93.2942C87.1181 91.1015 89.0752 88.6273 91.7142 86.0494C95.2725 82.5973 100.091 79.0119 104.984 75.8858C114.917 69.5595 115.199 67.1001 115.199 67.1001C115.199 67.1001 117.171 62.0776 116.993 59.7071L242.985 50.2251H243Z" fill="url(#paint5_linear_974_1208)"/>
<path d="M41.7354 154.972H163.65V251.585C163.65 255.126 160.774 258 157.231 258H48.1551C44.6116 258 41.7354 255.126 41.7354 251.585V154.972Z" fill="url(#paint6_linear_974_1208)"/>
<path d="M140.922 140.675H64.4638L41.7354 154.972H163.65L140.922 140.675Z" fill="url(#paint7_linear_974_1208)"/>
<path d="M126.17 148.364L120.818 145.001H84.5681L79.2307 148.364H126.17Z" fill="#C13D3D"/>
<path d="M126.274 191.774C120.343 185.848 110.706 185.848 104.761 191.774L102.7 193.848L100.625 191.774C97.6447 188.811 93.7602 187.329 89.861 187.329C85.9617 187.329 82.0773 188.811 79.112 191.774C73.1668 197.715 73.1668 207.33 79.112 213.286L81.1729 215.346L102.7 236.843L124.213 215.346L126.274 213.286C129.254 210.323 130.737 206.427 130.737 202.53C130.737 198.634 129.254 194.737 126.274 191.774Z" fill="white"/>
<path d="M210.19 127.711C206.394 123.918 200.242 123.918 196.446 127.711L195.127 129.03L193.807 127.711C191.909 125.815 189.418 124.866 186.928 124.866C184.437 124.866 181.961 125.815 180.063 127.711C176.268 131.504 176.268 137.652 180.063 141.445L181.383 142.764L195.127 156.498L208.87 142.764L210.19 141.445C212.088 139.549 213.036 137.06 213.036 134.571C213.036 132.082 212.088 129.593 210.19 127.696V127.711Z" fill="url(#paint8_linear_974_1208)"/>
<path d="M45.2641 86.9827C40.0601 81.7824 31.6092 81.7824 26.4052 86.9827L24.5965 88.8051L22.7728 86.9827C20.1634 84.3752 16.7534 83.0862 13.3286 83.0862C9.90378 83.0862 6.5086 84.39 3.8992 86.9827C-1.31959 92.1979 -1.31959 100.628 3.8992 105.843L5.70799 107.651L24.5816 126.511L43.4404 107.651L45.2492 105.843C47.8586 103.236 49.1633 99.8279 49.1633 96.4055C49.1633 92.9831 47.8586 89.5755 45.2492 86.9827H45.2641Z" fill="url(#paint9_linear_974_1208)"/>
<path d="M194.118 2.81498C190.367 -0.933387 184.274 -0.933387 180.523 2.81498L179.218 4.11875L177.913 2.81498C176.03 0.933387 173.569 0 171.108 0C168.647 0 166.186 0.933387 164.318 2.81498C160.552 6.57816 160.552 12.6526 164.318 16.4158L165.622 17.7195L179.233 31.3203L192.828 17.7195L194.133 16.4158C196.016 14.5342 196.95 12.0748 196.95 9.61537C196.95 7.15597 196.016 4.69657 194.133 2.81498H194.118Z" fill="url(#paint10_linear_974_1208)"/>
</g>
<defs>
<linearGradient id="paint0_linear_974_1208" x1="102.841" y1="30.3628" x2="64.4454" y2="21.5481" gradientUnits="userSpaceOnUse">
<stop stop-color="#F4C49D"/>
<stop offset="1" stop-color="#F9DAC5"/>
</linearGradient>
<linearGradient id="paint1_linear_974_1208" x1="77.8243" y1="39.1839" x2="68.4109" y2="34.4833" gradientUnits="userSpaceOnUse">
<stop stop-color="#F4C49D"/>
<stop offset="1" stop-color="#F9DAC5"/>
</linearGradient>
<linearGradient id="paint2_linear_974_1208" x1="219.501" y1="101.013" x2="85.7479" y2="0.753962" gradientUnits="userSpaceOnUse">
<stop stop-color="#F4C49D"/>
<stop offset="1" stop-color="#F9DAC5"/>
</linearGradient>
<linearGradient id="paint3_linear_974_1208" x1="80.2627" y1="117.111" x2="121.443" y2="86.9171" gradientUnits="userSpaceOnUse">
<stop stop-color="#FFB32C"/>
<stop offset="1" stop-color="#FFCD2E"/>
</linearGradient>
<linearGradient id="paint4_linear_974_1208" x1="117.414" y1="104.564" x2="82.7349" y2="99.2209" gradientUnits="userSpaceOnUse">
<stop stop-color="#FFB32C"/>
<stop offset="1" stop-color="#FFCD2E"/>
</linearGradient>
<linearGradient id="paint5_linear_974_1208" x1="217.677" y1="113.858" x2="104.374" y2="28.9324" gradientUnits="userSpaceOnUse">
<stop stop-color="#F4C49D"/>
<stop offset="1" stop-color="#F9DAC5"/>
</linearGradient>
<linearGradient id="paint6_linear_974_1208" x1="66.9101" y1="168.839" x2="140.322" y2="242.318" gradientUnits="userSpaceOnUse">
<stop stop-color="#FFA9A9"/>
<stop offset="1" stop-color="#FC7777"/>
</linearGradient>
<linearGradient id="paint7_linear_974_1208" x1="102.7" y1="134.541" x2="102.7" y2="160.454" gradientUnits="userSpaceOnUse">
<stop stop-color="#FFA9A9"/>
<stop offset="1" stop-color="#FC7777"/>
</linearGradient>
<linearGradient id="paint8_linear_974_1208" x1="177.217" y1="140.675" x2="213.036" y2="140.675" gradientUnits="userSpaceOnUse">
<stop stop-color="#FFA9A9"/>
<stop offset="1" stop-color="#FC7777"/>
</linearGradient>
<linearGradient id="paint9_linear_974_1208" x1="-6.64646e-05" y1="104.791" x2="49.1782" y2="104.791" gradientUnits="userSpaceOnUse">
<stop stop-color="#FFA9A9"/>
<stop offset="1" stop-color="#FC7777"/>
</linearGradient>
<linearGradient id="paint10_linear_974_1208" x1="161.501" y1="15.6602" x2="196.95" y2="15.6602" gradientUnits="userSpaceOnUse">
<stop stop-color="#FFA9A9"/>
<stop offset="1" stop-color="#FC7777"/>
</linearGradient>
<clipPath id="clip0_974_1208">
<rect width="243" height="258" fill="white"/>
</clipPath>
</defs>
</svg>
