<svg width="129" height="48" viewBox="0 0 129 48" fill="none" xmlns="http://www.w3.org/2000/svg">
<path d="M49.6692 16.8103C49.1472 72.9778 56.122 11.2451 76.9906 6.74842C85.0225 5.01039 84.1033 10.9644 78.934 12.5563C78.4742 12.6893 78.1166 12.7139 77.8507 12.6238C77.5815 12.517 77.4995 12.2199 77.6209 11.7261C77.7688 11.0828 77.7785 10.497 77.6505 9.97338C74.3782 -2.8536 61.1179 41.0548 47.526 42.6761C47.165 42.7121 46.8006 42.7121 46.4562 42.6761C45.4782 42.581 44.6476 42.0983 43.9418 41.2154C43.4037 40.4902 42.9341 39.4529 42.547 38.0974C42.3171 37.1617 42.1729 36.0918 42.0774 34.897C41.9988 33.6958 41.9823 32.4125 42.0513 31.0469C41.7165 31.5689 41.3686 32.0939 41.0208 32.6095C40.6729 33.1476 40.3085 33.6696 39.9507 34.1915C37.5398 37.5754 35.3309 40.1946 33.3368 42.0425C31.1804 43.956 29.28 44.9999 27.6587 45.1868C27.2977 45.2426 26.9381 45.2426 26.5869 45.1868C25.7453 45.1082 25.0623 44.8258 24.5259 44.3597C24.9016 44.2646 25.2757 44.1564 25.6401 44.0514C38.1913 39.9452 49.7217 9.98809 49.6692 16.8103Z" fill="#003D68"/>
<path d="M23.8706 37.2669C24.0595 36.3873 24.2877 35.4485 24.5684 34.4473C24.9441 33.1214 25.3428 31.7558 25.773 30.3381C37.1491 -7.4717 7.14924 1.8235 6.46826 18.5645C6.40107 20.168 6.60271 21.5598 7.06885 22.7365C7.53675 23.9146 8.26202 24.7844 9.26461 25.3326C10.2722 25.8825 11.5803 25.8562 13.1869 25.2654C13.5348 25.1471 13.7351 25.3474 13.7909 25.8825C14.0175 28.3555 11.5558 30.604 9.22866 30.6302C7.91083 30.6433 6.7882 30.3775 5.83808 29.8293C4.88963 29.268 4.12326 28.5198 3.54723 27.571C2.95801 26.6027 2.55912 25.5084 2.31775 24.248C2.08987 23.0037 2.02268 21.6927 2.12922 20.3452C2.2391 18.9749 2.51643 17.5848 2.95808 16.195C3.4011 14.7918 4.03127 13.4672 4.81911 12.2482C8.94474 5.66696 17.4049 1.10467 25.2363 1.85148C26.5639 1.97281 27.8327 2.28138 29.0517 2.76398C34.3362 4.88914 36.0117 8.47499 36.0776 13.7727C36.0776 20.4225 33.6849 36.7056 25.6793 37.2572C25.0786 37.2964 24.4746 37.2964 23.8706 37.2669Z" fill="#D1563F"/>
<path d="M88 24C88 18.7533 92.2533 14.5 97.5 14.5H119.5C124.747 14.5 129 18.7533 129 24C129 29.2467 124.747 33.5 119.5 33.5H97.5C92.2533 33.5 88 29.2467 88 24Z" fill="#F2F5F7"/>
<path d="M100.084 24.6973H97.9043L97.8926 23.5605H99.7617C100.082 23.5605 100.35 23.5156 100.564 23.4258C100.779 23.3359 100.941 23.2051 101.051 23.0332C101.164 22.8613 101.221 22.6523 101.221 22.4062C101.221 22.1328 101.168 21.9102 101.062 21.7383C100.961 21.5664 100.801 21.4414 100.582 21.3633C100.363 21.2812 100.086 21.2402 99.75 21.2402H98.4258V28.5H96.8145V19.9688H99.75C100.234 19.9688 100.666 20.0156 101.045 20.1094C101.428 20.1992 101.752 20.3398 102.018 20.5312C102.283 20.7227 102.484 20.9629 102.621 21.252C102.762 21.541 102.832 21.8848 102.832 22.2832C102.832 22.6348 102.75 22.959 102.586 23.2559C102.426 23.5488 102.178 23.7871 101.842 23.9707C101.51 24.1543 101.088 24.2598 100.576 24.2871L100.084 24.6973ZM100.014 28.5H97.4297L98.1035 27.2344H100.014C100.334 27.2344 100.598 27.1816 100.805 27.0762C101.016 26.9707 101.172 26.8262 101.273 26.6426C101.379 26.4551 101.432 26.2402 101.432 25.998C101.432 25.7324 101.385 25.502 101.291 25.3066C101.201 25.1113 101.057 24.9609 100.857 24.8555C100.662 24.75 100.404 24.6973 100.084 24.6973H98.4082L98.4199 23.5605H100.553L100.922 24C101.414 24.0039 101.814 24.1016 102.123 24.293C102.436 24.4844 102.666 24.7305 102.814 25.0312C102.963 25.332 103.037 25.6562 103.037 26.0039C103.037 26.5508 102.918 27.0098 102.68 27.3809C102.445 27.752 102.102 28.0312 101.648 28.2188C101.199 28.4062 100.654 28.5 100.014 28.5ZM107.162 28.6172C106.682 28.6172 106.25 28.5391 105.867 28.3828C105.484 28.2266 105.158 28.0098 104.889 27.7324C104.623 27.4512 104.418 27.125 104.273 26.7539C104.133 26.3789 104.062 25.9766 104.062 25.5469V25.3125C104.062 24.8242 104.133 24.3809 104.273 23.9824C104.414 23.5801 104.613 23.2344 104.871 22.9453C105.129 22.6562 105.438 22.4336 105.797 22.2773C106.156 22.1211 106.553 22.043 106.986 22.043C107.436 22.043 107.832 22.1191 108.176 22.2715C108.52 22.4199 108.807 22.6309 109.037 22.9043C109.268 23.1777 109.441 23.5059 109.559 23.8887C109.676 24.2676 109.734 24.6875 109.734 25.1484V25.7988H104.766V24.7324H108.211V24.6152C108.203 24.3691 108.156 24.1445 108.07 23.9414C107.984 23.7344 107.852 23.5703 107.672 23.4492C107.492 23.3242 107.26 23.2617 106.975 23.2617C106.744 23.2617 106.543 23.3125 106.371 23.4141C106.203 23.5117 106.062 23.6523 105.949 23.8359C105.84 24.0156 105.758 24.2305 105.703 24.4805C105.648 24.7305 105.621 25.0078 105.621 25.3125V25.5469C105.621 25.8125 105.656 26.0586 105.727 26.2852C105.801 26.5117 105.908 26.709 106.049 26.877C106.193 27.041 106.365 27.1699 106.564 27.2637C106.768 27.3535 106.998 27.3984 107.256 27.3984C107.58 27.3984 107.873 27.3359 108.135 27.2109C108.4 27.082 108.631 26.8926 108.826 26.6426L109.605 27.4512C109.473 27.6465 109.293 27.834 109.066 28.0137C108.844 28.1934 108.574 28.3398 108.258 28.4531C107.941 28.5625 107.576 28.6172 107.162 28.6172ZM113.771 22.1602V23.2734H110.139V22.1602H113.771ZM111.111 20.6016H112.664V26.6719C112.664 26.8594 112.689 27.0039 112.74 27.1055C112.791 27.207 112.867 27.2754 112.969 27.3105C113.07 27.3457 113.191 27.3633 113.332 27.3633C113.434 27.3633 113.527 27.3574 113.613 27.3457C113.699 27.334 113.771 27.3223 113.83 27.3105L113.836 28.4707C113.707 28.5137 113.561 28.5488 113.396 28.5762C113.236 28.6035 113.055 28.6172 112.852 28.6172C112.504 28.6172 112.199 28.5586 111.938 28.4414C111.676 28.3203 111.473 28.127 111.328 27.8613C111.184 27.5918 111.111 27.2363 111.111 26.7949V20.6016ZM118.295 27.1523V24.2285C118.295 24.0137 118.258 23.8281 118.184 23.6719C118.109 23.5156 117.996 23.3945 117.844 23.3086C117.691 23.2227 117.498 23.1797 117.264 23.1797C117.057 23.1797 116.875 23.2148 116.719 23.2852C116.566 23.3555 116.449 23.4551 116.367 23.584C116.285 23.709 116.244 23.8535 116.244 24.0176H114.691C114.691 23.7559 114.754 23.5078 114.879 23.2734C115.004 23.0352 115.182 22.8242 115.412 22.6406C115.646 22.4531 115.926 22.3066 116.25 22.2012C116.578 22.0957 116.945 22.043 117.352 22.043C117.832 22.043 118.26 22.125 118.635 22.2891C119.014 22.4492 119.311 22.6914 119.525 23.0156C119.744 23.3398 119.854 23.748 119.854 24.2402V27.0059C119.854 27.3223 119.873 27.5938 119.912 27.8203C119.955 28.043 120.018 28.2363 120.1 28.4004V28.5H118.523C118.449 28.3398 118.393 28.1367 118.354 27.8906C118.314 27.6406 118.295 27.3945 118.295 27.1523ZM118.512 24.6387L118.523 25.5586H117.545C117.303 25.5586 117.09 25.584 116.906 25.6348C116.723 25.6816 116.572 25.752 116.455 25.8457C116.338 25.9355 116.25 26.0449 116.191 26.1738C116.133 26.2988 116.104 26.4414 116.104 26.6016C116.104 26.7578 116.139 26.8984 116.209 27.0234C116.283 27.1484 116.389 27.248 116.525 27.3223C116.666 27.3926 116.83 27.4277 117.018 27.4277C117.291 27.4277 117.529 27.373 117.732 27.2637C117.936 27.1504 118.094 27.0137 118.207 26.8535C118.32 26.6934 118.381 26.541 118.389 26.3965L118.834 27.0645C118.779 27.2246 118.697 27.3945 118.588 27.5742C118.479 27.7539 118.338 27.9219 118.166 28.0781C117.994 28.2344 117.787 28.3633 117.545 28.4648C117.303 28.5664 117.021 28.6172 116.701 28.6172C116.291 28.6172 115.924 28.5352 115.6 28.3711C115.275 28.207 115.02 27.9824 114.832 27.6973C114.645 27.4121 114.551 27.0879 114.551 26.7246C114.551 26.3887 114.613 26.0918 114.738 25.834C114.863 25.5762 115.049 25.3594 115.295 25.1836C115.541 25.0039 115.846 24.8691 116.209 24.7793C116.576 24.6855 116.996 24.6387 117.469 24.6387H118.512Z" fill="#222222"/>
</svg>
