<svg width="130" height="48" viewBox="0 0 130 48" fill="none" xmlns="http://www.w3.org/2000/svg">
<path d="M50.1692 16.8102C49.6472 72.9777 56.622 11.245 77.4906 6.74833C85.5225 5.01031 84.6033 10.9644 79.434 12.5562C78.9742 12.6893 78.6166 12.7138 78.3507 12.6237C78.0815 12.5169 77.9995 12.2198 78.1209 11.726C78.2688 11.0827 78.2785 10.4969 78.1505 9.97329C74.8782 -2.85369 61.6179 41.0547 48.026 42.676C47.665 42.712 47.3006 42.712 46.9562 42.676C45.9782 42.581 45.1476 42.0983 44.4418 41.2153C43.9037 40.4901 43.4341 39.4528 43.047 38.0973C42.8171 37.1616 42.6729 36.0917 42.5774 34.8969C42.4988 33.6957 42.4823 32.4125 42.5513 31.0468C42.2165 31.5688 41.8686 32.0938 41.5208 32.6094C41.1729 33.1475 40.8085 33.6695 40.4507 34.1914C38.0398 37.5753 35.8309 40.1945 33.8368 42.0424C31.6804 43.9559 29.78 44.9998 28.1587 45.1867C27.7977 45.2425 27.4381 45.2425 27.0869 45.1867C26.2453 45.1081 25.5623 44.8258 25.0259 44.3596C25.4016 44.2645 25.7757 44.1563 26.1401 44.0514C38.6913 39.9451 50.2217 9.988 50.1692 16.8102Z" fill="#003D68"/>
<path d="M24.3706 37.2668C24.5595 36.3872 24.7877 35.4485 25.0684 34.4473C25.4441 33.1213 25.8428 31.7558 26.273 30.3381C37.6491 -7.47172 7.64924 1.82347 6.96826 18.5644C6.90107 20.1679 7.10271 21.5598 7.56885 22.7365C8.03675 23.9146 8.76202 24.7844 9.76461 25.3326C10.7722 25.8824 12.0803 25.8562 13.6869 25.2654C14.0348 25.1471 14.2351 25.3474 14.2909 25.8824C14.5175 28.3554 12.0558 30.604 9.72866 30.6302C8.41083 30.6433 7.2882 30.3775 6.33808 29.8293C5.38963 29.2679 4.62326 28.5198 4.04723 27.571C3.45801 26.6027 3.05912 25.5083 2.81775 24.248C2.58987 23.0037 2.52268 21.6926 2.62922 20.3452C2.7391 18.9748 3.01643 17.5848 3.45808 16.195C3.9011 14.7917 4.53127 13.4672 5.31911 12.2481C9.44474 5.66693 17.9049 1.10465 25.7363 1.85146C27.0639 1.97279 28.3327 2.28136 29.5517 2.76396C34.8362 4.88911 36.5117 8.47497 36.5776 13.7727C36.5776 20.4225 34.1849 36.7056 26.1793 37.2572C25.5786 37.2964 24.9746 37.2964 24.3706 37.2668Z" fill="#D1563F"/>
<path d="M88.5 24C88.5 18.7533 92.7533 14.5 98 14.5H120C125.247 14.5 129.5 18.7533 129.5 24C129.5 29.2467 125.247 33.5 120 33.5H98C92.7533 33.5 88.5 29.2467 88.5 24Z" fill="#F2F5F7"/>
<path d="M100.584 24.6973H98.4043L98.3926 23.5605H100.262C100.582 23.5605 100.85 23.5156 101.064 23.4258C101.279 23.3359 101.441 23.2051 101.551 23.0332C101.664 22.8613 101.721 22.6523 101.721 22.4062C101.721 22.1328 101.668 21.9102 101.562 21.7383C101.461 21.5664 101.301 21.4414 101.082 21.3633C100.863 21.2812 100.586 21.2402 100.25 21.2402H98.9258V28.5H97.3145V19.9688H100.25C100.734 19.9688 101.166 20.0156 101.545 20.1094C101.928 20.1992 102.252 20.3398 102.518 20.5312C102.783 20.7227 102.984 20.9629 103.121 21.252C103.262 21.541 103.332 21.8848 103.332 22.2832C103.332 22.6348 103.25 22.959 103.086 23.2559C102.926 23.5488 102.678 23.7871 102.342 23.9707C102.01 24.1543 101.588 24.2598 101.076 24.2871L100.584 24.6973ZM100.514 28.5H97.9297L98.6035 27.2344H100.514C100.834 27.2344 101.098 27.1816 101.305 27.0762C101.516 26.9707 101.672 26.8262 101.773 26.6426C101.879 26.4551 101.932 26.2402 101.932 25.998C101.932 25.7324 101.885 25.502 101.791 25.3066C101.701 25.1113 101.557 24.9609 101.357 24.8555C101.162 24.75 100.904 24.6973 100.584 24.6973H98.9082L98.9199 23.5605H101.053L101.422 24C101.914 24.0039 102.314 24.1016 102.623 24.293C102.936 24.4844 103.166 24.7305 103.314 25.0312C103.463 25.332 103.537 25.6562 103.537 26.0039C103.537 26.5508 103.418 27.0098 103.18 27.3809C102.945 27.752 102.602 28.0312 102.148 28.2188C101.699 28.4062 101.154 28.5 100.514 28.5ZM107.662 28.6172C107.182 28.6172 106.75 28.5391 106.367 28.3828C105.984 28.2266 105.658 28.0098 105.389 27.7324C105.123 27.4512 104.918 27.125 104.773 26.7539C104.633 26.3789 104.562 25.9766 104.562 25.5469V25.3125C104.562 24.8242 104.633 24.3809 104.773 23.9824C104.914 23.5801 105.113 23.2344 105.371 22.9453C105.629 22.6562 105.938 22.4336 106.297 22.2773C106.656 22.1211 107.053 22.043 107.486 22.043C107.936 22.043 108.332 22.1191 108.676 22.2715C109.02 22.4199 109.307 22.6309 109.537 22.9043C109.768 23.1777 109.941 23.5059 110.059 23.8887C110.176 24.2676 110.234 24.6875 110.234 25.1484V25.7988H105.266V24.7324H108.711V24.6152C108.703 24.3691 108.656 24.1445 108.57 23.9414C108.484 23.7344 108.352 23.5703 108.172 23.4492C107.992 23.3242 107.76 23.2617 107.475 23.2617C107.244 23.2617 107.043 23.3125 106.871 23.4141C106.703 23.5117 106.562 23.6523 106.449 23.8359C106.34 24.0156 106.258 24.2305 106.203 24.4805C106.148 24.7305 106.121 25.0078 106.121 25.3125V25.5469C106.121 25.8125 106.156 26.0586 106.227 26.2852C106.301 26.5117 106.408 26.709 106.549 26.877C106.693 27.041 106.865 27.1699 107.064 27.2637C107.268 27.3535 107.498 27.3984 107.756 27.3984C108.08 27.3984 108.373 27.3359 108.635 27.2109C108.9 27.082 109.131 26.8926 109.326 26.6426L110.105 27.4512C109.973 27.6465 109.793 27.834 109.566 28.0137C109.344 28.1934 109.074 28.3398 108.758 28.4531C108.441 28.5625 108.076 28.6172 107.662 28.6172ZM114.271 22.1602V23.2734H110.639V22.1602H114.271ZM111.611 20.6016H113.164V26.6719C113.164 26.8594 113.189 27.0039 113.24 27.1055C113.291 27.207 113.367 27.2754 113.469 27.3105C113.57 27.3457 113.691 27.3633 113.832 27.3633C113.934 27.3633 114.027 27.3574 114.113 27.3457C114.199 27.334 114.271 27.3223 114.33 27.3105L114.336 28.4707C114.207 28.5137 114.061 28.5488 113.896 28.5762C113.736 28.6035 113.555 28.6172 113.352 28.6172C113.004 28.6172 112.699 28.5586 112.438 28.4414C112.176 28.3203 111.973 28.127 111.828 27.8613C111.684 27.5918 111.611 27.2363 111.611 26.7949V20.6016ZM118.795 27.1523V24.2285C118.795 24.0137 118.758 23.8281 118.684 23.6719C118.609 23.5156 118.496 23.3945 118.344 23.3086C118.191 23.2227 117.998 23.1797 117.764 23.1797C117.557 23.1797 117.375 23.2148 117.219 23.2852C117.066 23.3555 116.949 23.4551 116.867 23.584C116.785 23.709 116.744 23.8535 116.744 24.0176H115.191C115.191 23.7559 115.254 23.5078 115.379 23.2734C115.504 23.0352 115.682 22.8242 115.912 22.6406C116.146 22.4531 116.426 22.3066 116.75 22.2012C117.078 22.0957 117.445 22.043 117.852 22.043C118.332 22.043 118.76 22.125 119.135 22.2891C119.514 22.4492 119.811 22.6914 120.025 23.0156C120.244 23.3398 120.354 23.748 120.354 24.2402V27.0059C120.354 27.3223 120.373 27.5938 120.412 27.8203C120.455 28.043 120.518 28.2363 120.6 28.4004V28.5H119.023C118.949 28.3398 118.893 28.1367 118.854 27.8906C118.814 27.6406 118.795 27.3945 118.795 27.1523ZM119.012 24.6387L119.023 25.5586H118.045C117.803 25.5586 117.59 25.584 117.406 25.6348C117.223 25.6816 117.072 25.752 116.955 25.8457C116.838 25.9355 116.75 26.0449 116.691 26.1738C116.633 26.2988 116.604 26.4414 116.604 26.6016C116.604 26.7578 116.639 26.8984 116.709 27.0234C116.783 27.1484 116.889 27.248 117.025 27.3223C117.166 27.3926 117.33 27.4277 117.518 27.4277C117.791 27.4277 118.029 27.373 118.232 27.2637C118.436 27.1504 118.594 27.0137 118.707 26.8535C118.82 26.6934 118.881 26.541 118.889 26.3965L119.334 27.0645C119.279 27.2246 119.197 27.3945 119.088 27.5742C118.979 27.7539 118.838 27.9219 118.666 28.0781C118.494 28.2344 118.287 28.3633 118.045 28.4648C117.803 28.5664 117.521 28.6172 117.201 28.6172C116.791 28.6172 116.424 28.5352 116.1 28.3711C115.775 28.207 115.52 27.9824 115.332 27.6973C115.145 27.4121 115.051 27.0879 115.051 26.7246C115.051 26.3887 115.113 26.0918 115.238 25.834C115.363 25.5762 115.549 25.3594 115.795 25.1836C116.041 25.0039 116.346 24.8691 116.709 24.7793C117.076 24.6855 117.496 24.6387 117.969 24.6387H119.012Z" fill="#222222"/>
</svg>
