<svg width="83" height="44" viewBox="0 0 83 44" fill="none" xmlns="http://www.w3.org/2000/svg">
<g clip-path="url(#clip0_96_15)">
<path d="M48.3242 15.3139C47.6436 72.1457 54.7901 9.52867 75.8893 5.10464C84.0567 3.40309 83.0358 9.52867 77.9312 10.8899C77.5908 10.8899 77.2505 10.8899 76.9102 10.8899C76.5699 10.8899 76.5699 10.5496 76.5699 9.86898C76.5699 9.18836 76.5699 8.50774 76.5699 8.16743C73.1668 -4.76435 59.8947 39.476 45.942 41.1775C45.6017 41.1775 45.2614 41.1775 44.9211 41.1775C43.9002 41.1775 43.2195 40.4969 42.5389 39.8163C41.8583 39.1357 41.518 38.1147 41.1777 36.7535C40.8374 35.7325 40.8374 34.7116 40.8374 33.3504C40.8374 31.9891 40.8374 30.9682 40.8374 29.607C40.497 30.2876 40.1567 30.6279 39.8164 31.3085C39.4761 31.9891 39.1358 32.3294 38.7955 33.0101C36.4133 36.4132 34.0312 39.1357 31.9893 40.8372C29.9474 42.8791 27.9056 43.9 26.204 43.9C25.8637 43.9 25.5234 43.9 25.1831 43.9C24.1622 43.9 23.4815 43.5597 23.1412 43.2194C23.4815 43.2194 23.8219 42.8791 24.1622 42.8791C36.4133 38.7953 48.3242 8.16743 48.3242 15.3139Z" fill="#003D68"/>
<path d="M22.1202 36.0729C22.4605 35.0519 22.4605 34.3713 22.8008 33.3504C23.1411 31.6488 23.4814 30.2876 23.8217 28.9264C35.3922 -9.52868 5.10465 -1.27405e-06 4.42403 17.0155C4.42403 18.7171 4.42403 20.0783 5.10465 21.0992C5.44496 22.4605 6.12558 23.1411 7.14651 23.8217C8.16744 24.5023 9.52868 24.5023 11.2302 23.8217C11.5705 23.8217 11.9109 23.8217 11.9109 24.5023C12.2512 26.8845 9.52868 29.2667 7.14651 29.2667C5.78527 29.2667 4.76434 28.9264 3.74341 28.586C2.72248 27.9054 2.04186 27.2248 1.36124 26.2039C0.68062 25.1829 0.34031 24.162 0 22.8008C0 21.4395 0 20.0783 0 18.7171C0 17.3558 0.34031 15.9946 0.68062 14.6333C1.02093 13.2721 1.70155 11.9109 2.72248 10.5496C6.8062 4.08372 15.6543 -0.680622 23.4814 -1.63913e-06C24.8426 -1.63913e-06 26.2039 0.340308 27.2248 1.02093C32.6698 3.06279 34.3713 6.8062 34.3713 12.2512C34.3713 19.0574 31.9891 35.3922 23.8217 36.0729C23.1411 36.0729 22.8008 36.0729 22.1202 36.0729Z" fill="#D1563F"/>
</g>
<defs>
<clipPath id="clip0_96_15">
<rect width="82.0147" height="43.9" fill="white"/>
</clipPath>
</defs>
</svg>
