 <svg
                  xmlns="http://www.w3.org/2000/svg"
                  width="21"
                  height="17"
                  viewBox="0 0 10 12"
                  fill="none"
                >
                  <path
                    fillRule="evenodd"
                    clipRule="evenodd"
                    d="M4.47354 0.625H5.52554C5.97454 0.625 6.34954 0.625 6.64654 0.665C6.96054 0.707 7.24404 0.8 7.47154 1.0275C7.69954 1.2555 7.79254 1.539 7.83454 1.8525C7.87454 2.15 7.87454 2.525 7.87454 2.974V3.6405L8.29454 3.8695C8.59022 4.03081 8.83698 4.2688 9.0089 4.55844C9.18082 4.84808 9.27154 5.17868 9.27154 5.5155V7.9845C9.2715 8.32137 9.1807 8.65201 9.00869 8.94165C8.83668 9.2313 8.58981 9.46925 8.29404 9.6305L5.89704 10.9375C5.62171 11.0876 5.31313 11.1663 4.99954 11.1663C4.68595 11.1663 4.37737 11.0876 4.10204 10.9375L1.70454 9.6305C1.40886 9.46919 1.1621 9.2312 0.990177 8.94156C0.818258 8.65192 0.727534 8.32132 0.727539 7.9845V5.515C0.727713 5.17835 0.818523 4.84796 0.990432 4.55851C1.16234 4.26906 1.40901 4.03123 1.70454 3.87L2.12454 3.641V2.974C2.12454 2.525 2.12454 2.15 2.16454 1.853C2.20654 1.539 2.29954 1.2555 2.52704 1.028C2.75504 0.8 3.03854 0.707 3.35204 0.665C3.64954 0.625 4.02404 0.625 4.47354 0.625ZM2.87454 3.2315L4.10204 2.5625C4.37737 2.4124 4.68595 2.33374 4.99954 2.33374C5.31313 2.33374 5.62171 2.4124 5.89704 2.5625L7.12454 3.2315V3C7.12454 2.518 7.12354 2.194 7.09104 1.9525C7.06004 1.722 7.00654 1.623 6.94104 1.558C6.87604 1.493 6.77754 1.4395 6.54654 1.408C6.30504 1.376 5.98154 1.375 5.49954 1.375H4.49954C4.01754 1.375 3.69354 1.376 3.45204 1.4085C3.22154 1.4395 3.12254 1.493 3.05704 1.5585C2.99204 1.6235 2.93854 1.722 2.90754 1.9525C2.87504 2.194 2.87454 2.518 2.87454 3V3.2315ZM5.53804 3.221C5.37284 3.13094 5.18769 3.08375 4.99954 3.08375C4.81139 3.08375 4.62624 3.13094 4.46104 3.221L2.06354 4.528C1.88618 4.62481 1.73818 4.76759 1.63506 4.94136C1.53195 5.11512 1.47753 5.31345 1.47754 5.5155V7.9845C1.47754 8.396 1.70254 8.775 2.06354 8.972L4.46104 10.279C4.62624 10.3691 4.81139 10.4163 4.99954 10.4163C5.18769 10.4163 5.37284 10.3691 5.53804 10.279L7.93504 8.972C8.11249 8.87526 8.2606 8.7325 8.3638 8.55873C8.46701 8.38497 8.52149 8.18661 8.52154 7.9845V5.515C8.52149 5.3129 8.46701 5.11453 8.3638 4.94077C8.2606 4.767 8.11249 4.62424 7.93504 4.5275L5.53804 3.221ZM4.99954 5.7675C4.97054 5.8175 4.93804 5.8755 4.89954 5.944L4.85054 6.032C4.84754 6.0385 4.84354 6.045 4.83954 6.052C4.80054 6.124 4.73554 6.243 4.62704 6.3255C4.51604 6.4095 4.38304 6.4385 4.30504 6.4555L4.28354 6.4605L4.18854 6.4815C4.10054 6.5015 4.02904 6.5175 3.96854 6.533C4.00804 6.582 4.05954 6.6425 4.12654 6.721L4.19154 6.797C4.19654 6.802 4.20154 6.808 4.20654 6.8145C4.26054 6.8765 4.34754 6.977 4.38804 7.1065C4.42804 7.2345 4.41404 7.3665 4.40554 7.4495C4.40466 7.45733 4.40382 7.46516 4.40304 7.473L4.39304 7.5745C4.38554 7.65112 4.37854 7.72779 4.37204 7.8045C4.42454 7.782 4.48354 7.7545 4.55404 7.722L4.64354 7.681L4.66354 7.6715C4.73504 7.6375 4.86004 7.579 4.99954 7.579C5.13854 7.579 5.26354 7.6375 5.33554 7.6715L5.35554 7.681L5.44504 7.722C5.51504 7.7545 5.57504 7.782 5.62654 7.8045C5.62154 7.7435 5.61504 7.6685 5.60604 7.5745L5.59604 7.473C5.59525 7.46516 5.59442 7.45733 5.59354 7.4495C5.58504 7.3665 5.57104 7.2345 5.61104 7.1065C5.65104 6.9765 5.73854 6.8765 5.79254 6.8145L5.80754 6.797L5.87254 6.721C5.93954 6.6425 5.99104 6.582 6.03054 6.533C5.96954 6.518 5.89854 6.5015 5.81054 6.4815L5.71554 6.46C5.70822 6.45828 5.70088 6.45661 5.69354 6.455C5.61604 6.4385 5.48254 6.4095 5.37204 6.325C5.26354 6.243 5.19854 6.124 5.15904 6.0525C5.15538 6.04583 5.15172 6.03916 5.14804 6.0325L5.09904 5.944C5.06646 5.88474 5.03312 5.8259 4.99904 5.7675H4.99954ZM4.50604 5.15C4.59204 5.0375 4.74854 4.875 4.99954 4.875C5.25054 4.875 5.40654 5.0375 5.49254 5.15C5.57504 5.257 5.65754 5.4055 5.74254 5.558L5.75404 5.579L5.80304 5.667L5.83154 5.717L5.88054 5.7285L5.97604 5.75L5.99954 5.755C6.16354 5.7925 6.32654 5.8295 6.45154 5.8785C6.58954 5.933 6.77654 6.0385 6.84904 6.271C6.92004 6.499 6.83054 6.6915 6.75204 6.816C6.68004 6.931 6.57004 7.059 6.45754 7.1905L6.44254 7.2085L6.37754 7.2845L6.33604 7.333L6.34254 7.4005L6.35254 7.502L6.35454 7.525C6.37154 7.701 6.38804 7.8715 6.38204 8.0075C6.37554 8.15 6.34154 8.366 6.14804 8.5125C5.94804 8.6645 5.72804 8.6315 5.58804 8.5915C5.45904 8.5545 5.30654 8.484 5.15304 8.4135C5.14571 8.41015 5.13838 8.40681 5.13104 8.4035L5.04204 8.3625L4.99954 8.3425L4.95704 8.3625L4.86754 8.4035L4.84554 8.4135C4.69204 8.484 4.54004 8.5545 4.41104 8.5915C4.27104 8.6315 4.05104 8.6645 3.85104 8.513C3.65754 8.366 3.62304 8.15 3.61704 8.0075C3.61054 7.8715 3.62704 7.701 3.64454 7.5255L3.64654 7.502L3.65654 7.4005C3.65904 7.3725 3.66154 7.351 3.66254 7.333C3.64898 7.31675 3.63531 7.30058 3.62154 7.2845L3.55654 7.2085L3.54154 7.1905C3.42854 7.059 3.31904 6.9305 3.24654 6.8155C3.16854 6.6915 3.07904 6.499 3.15004 6.2705C3.22204 6.039 3.40904 5.933 3.54754 5.8785C3.67254 5.8295 3.83504 5.7925 3.99904 5.7555L4.02254 5.7505L4.11804 5.7285L4.16754 5.717L4.19554 5.667L4.24504 5.579L4.25654 5.558C4.34154 5.4055 4.42404 5.257 4.50654 5.15H4.50604Z"
                    fill="white"
                  />
                </svg>