<svg width="33" height="32" viewBox="0 0 33 32" fill="none" xmlns="http://www.w3.org/2000/svg">
<path d="M8.625 15.9766C8.625 16.1489 8.65895 16.3196 8.72491 16.4788C8.79087 16.6381 8.88755 16.7828 9.00942 16.9046C9.1313 17.0265 9.27599 17.1232 9.43523 17.1892C9.59447 17.2551 9.76514 17.2891 9.9375 17.2891C10.1099 17.2891 10.2805 17.2551 10.4398 17.1892C10.599 17.1232 10.7437 17.0265 10.8656 16.9046C10.9875 16.7828 11.0841 16.6381 11.1501 16.4788C11.2161 16.3196 11.25 16.1489 11.25 15.9766C11.25 15.8042 11.2161 15.6335 11.1501 15.4743C11.0841 15.3151 10.9875 15.1704 10.8656 15.0485C10.7437 14.9266 10.599 14.8299 10.4398 14.764C10.2805 14.698 10.1099 14.6641 9.9375 14.6641C9.76514 14.6641 9.59447 14.698 9.43523 14.764C9.27599 14.8299 9.1313 14.9266 9.00942 15.0485C8.88755 15.1704 8.79087 15.3151 8.72491 15.4743C8.65895 15.6335 8.625 15.8042 8.625 15.9766ZM15.1875 15.9766C15.1875 16.3247 15.3258 16.6585 15.5719 16.9046C15.8181 17.1508 16.1519 17.2891 16.5 17.2891C16.8481 17.2891 17.1819 17.1508 17.4281 16.9046C17.6742 16.6585 17.8125 16.3247 17.8125 15.9766C17.8125 15.6285 17.6742 15.2946 17.4281 15.0485C17.1819 14.8023 16.8481 14.6641 16.5 14.6641C16.1519 14.6641 15.8181 14.8023 15.5719 15.0485C15.3258 15.2946 15.1875 15.6285 15.1875 15.9766ZM21.75 15.9766C21.75 16.3247 21.8883 16.6585 22.1344 16.9046C22.3806 17.1508 22.7144 17.2891 23.0625 17.2891C23.4106 17.2891 23.7444 17.1508 23.9906 16.9046C24.2367 16.6585 24.375 16.3247 24.375 15.9766C24.375 15.6285 24.2367 15.2946 23.9906 15.0485C23.7444 14.8023 23.4106 14.6641 23.0625 14.6641C22.7144 14.6641 22.3806 14.8023 22.1344 15.0485C21.8883 15.2946 21.75 15.6285 21.75 15.9766Z" fill="#8C8C8C"/>
</svg>
