<svg xmlns="http://www.w3.org/2000/svg" width="15" height="15" viewBox="0 0 15 15" fill="none">
<path d="M7.57733 0.860215C7.28869 0.741364 6.95683 0.806963 6.73611 1.02769L3.42296 4.65958H1.10769C0.683228 4.65958 0.335938 5.00765 0.335938 5.43134V10.0619C0.335938 10.4864 0.683228 10.8337 1.10769 10.8337H3.42296L6.73611 14.4671C6.95683 14.6878 7.28869 14.7534 7.57733 14.6346C7.86596 14.5149 8.0535 14.2333 8.0535 13.9207V1.57255C8.0535 1.26153 7.86596 0.978294 7.57733 0.860215Z" fill="white"/>
<path d="M9.59692 2.34473V3.88824C11.7247 3.88824 13.4557 5.62007 13.4557 7.74704C13.4557 9.87478 11.7247 11.6058 9.59692 11.6058V13.1494C12.5759 13.1494 14.9992 10.7268 14.9992 7.74704C14.9992 4.76882 12.5759 2.34473 9.59692 2.34473Z" fill="white"/>
<path d="M9.59692 5.43164C10.8734 5.43164 11.9122 6.4712 11.9122 7.74692C11.9122 9.02418 10.8734 10.0622 9.59692 10.0622V8.51868C10.0222 8.51868 10.3687 8.17216 10.3687 7.74692C10.3687 7.32168 10.0222 6.97516 9.59692 6.97516V5.43164Z" fill="white"/>
</svg>