<svg xmlns="http://www.w3.org/2000/svg" width="28" height="22" viewBox="0 0 28 22" fill="none">
<path d="M11.3304 16.7056L19.6141 10.4346V21.1262C19.6141 21.4862 19.4084 21.7945 19.0481 21.8971C18.8937 21.9484 18.7394 22 18.5851 22C18.3794 22 18.1734 21.8971 18.0191 21.7945L11.3304 16.7056ZM27.2803 0.770976C26.9199 0.308439 26.3026 0.205534 25.8396 0.565523L19.6139 5.29452V0.873936C19.6139 0.513947 19.4082 0.205598 19.0479 0.0514192C18.7392 -0.051486 18.3276 0.000146756 18.0702 0.205598L9.94094 6.37376L5.51613 6.37412C4.69283 6.37412 3.66389 6.88829 3.66389 7.65917V14.2899C3.66389 15.0607 4.69282 15.6262 5.51613 15.6262H5.92779L0.422331 19.7897C-0.0406472 20.1497 -0.143652 20.7664 0.216681 21.229C0.577014 21.6915 1.19435 21.7944 1.65731 21.4344L27.1256 2.21002C27.5369 1.85039 27.64 1.23366 27.28 0.770765L27.2803 0.770976Z" fill="white" fill-opacity="0.9"/>
</svg>