<svg width="16" height="14" viewBox="0 0 16 14" fill="white" xmlns="http://www.w3.org/2000/svg" class="h-[24px] w-[24px]"><path fill-rule="evenodd" clip-rule="evenodd" d="M9.0506 9.10219L7.90594 9.53219C7.56994 9.65819 7.34594 9.98152 7.34594 10.3402C7.34594 10.6995 7.56994 11.0222 7.90594 11.1482L9.05127 11.5775L9.48127 12.7242C9.60794 13.0602 9.93127 13.2835 10.2899 13.2835C10.6486 13.2835 10.9713 13.0602 11.0979 12.7242L11.5273 11.5775L12.6719 11.1489C13.0079 11.0229 13.2319 10.7002 13.2319 10.3409C13.2319 9.98152 13.0079 9.65885 12.6719 9.53285L11.5266 9.10285L11.0966 7.95752C11.0919 7.94419 11.0859 7.93085 11.0799 7.91752C10.9346 7.61285 10.6259 7.41819 10.2886 7.41819C9.95127 7.41819 9.6426 7.61285 9.49727 7.91752C9.4906 7.93085 9.48527 7.94419 9.47994 7.95752L9.0506 9.10219ZM10.2886 8.64952L10.6466 9.60485C10.7119 9.77885 10.8499 9.91685 11.0239 9.98219L11.9793 10.3409L11.0246 10.6982C10.8493 10.7642 10.7106 10.9035 10.6459 11.0795L10.2893 12.0315L9.9306 11.0762C9.86727 10.9035 9.72927 10.7642 9.55327 10.6982L8.5986 10.3402L9.55327 9.98152C9.72727 9.91619 9.8646 9.77885 9.92994 9.60419L10.2886 8.64952ZM3.3786 4.58685L1.51994 5.28485C1.10994 5.43885 0.835938 5.83352 0.835938 6.27152C0.835938 6.71019 1.10994 7.10485 1.5206 7.25885L3.37927 7.95552L4.07794 9.81685C4.2326 10.2269 4.62727 10.4995 5.06527 10.4995C5.50327 10.4995 5.89794 10.2269 6.05194 9.81685L6.74927 7.95619L8.60794 7.25952C9.0186 7.10552 9.29194 6.71085 9.29194 6.27285C9.29194 5.83419 9.0186 5.43952 8.60794 5.28552L6.74794 4.58752L6.0506 2.72819C6.04527 2.71485 6.03994 2.70152 6.03394 2.68819C5.85527 2.31485 5.47727 2.07619 5.06327 2.07619C4.64994 2.07619 4.27127 2.31485 4.09327 2.68819C4.0866 2.70152 4.08127 2.71485 4.07594 2.72819L3.3786 4.58685ZM5.01394 9.46419L4.27127 7.48752C4.19994 7.29352 4.04527 7.13819 3.84927 7.06419L1.87127 6.32219C1.84994 6.31419 1.83594 6.29419 1.83594 6.27152C1.83594 6.24952 1.84994 6.22952 1.87127 6.22152L3.8486 5.47885C4.04327 5.40552 4.19727 5.25152 4.2706 5.05685L5.00127 3.10952C5.01527 3.08885 5.0386 3.07619 5.06327 3.07619C5.08727 3.07619 5.10994 3.08819 5.12394 3.10752C5.12527 3.10952 5.85594 5.05685 5.85594 5.05685V5.05752C5.92927 5.25219 6.08327 5.40619 6.27794 5.47952L8.25727 6.22219C8.27794 6.23019 8.29194 6.25019 8.29194 6.27285C8.29194 6.29485 8.27794 6.31552 8.25727 6.32285L6.27927 7.06419C6.0826 7.13819 5.92794 7.29352 5.85594 7.49019C5.8566 7.48752 5.1166 9.46419 5.1166 9.46419C5.10794 9.48552 5.08794 9.49952 5.06527 9.49952C5.0426 9.49952 5.02194 9.48552 5.01394 9.46419ZM10.5093 2.40152L9.16994 2.90485C8.81394 3.03819 8.57594 3.38085 8.57594 3.76152C8.57594 4.14219 8.81394 4.48485 9.16994 4.61819L10.5099 5.12085L11.0139 6.46285C11.1479 6.81819 11.4906 7.05552 11.8706 7.05552C12.2513 7.05552 12.5933 6.81819 12.7273 6.46285L13.2299 5.12085L14.5699 4.61885C14.9266 4.48552 15.1639 4.14285 15.1639 3.76219C15.1639 3.38152 14.9266 3.03885 14.5699 2.90485L13.2293 2.40219L12.7266 1.06152C12.7213 1.04819 12.7159 1.03485 12.7099 1.02219C12.5553 0.698854 12.2273 0.492188 11.8693 0.492188C11.5113 0.492188 11.1833 0.698854 11.0293 1.02219C11.0226 1.03485 11.0173 1.04819 11.0119 1.06152L10.5093 2.40152ZM11.8693 1.62352L12.3459 2.89552C12.4139 3.07485 12.5559 3.21752 12.7359 3.28485L14.0073 3.76219L12.7366 4.23819C12.5553 4.30619 12.4126 4.44952 12.3459 4.63152L11.8706 5.89952L11.3933 4.62819C11.3273 4.44952 11.1846 4.30619 11.0039 4.23819L9.7326 3.76152L11.0033 3.28419C11.1826 3.21685 11.3246 3.07419 11.3926 2.89485L11.8693 1.62352Z" fill="[object Object]"></path></svg>