<svg xmlns="http://www.w3.org/2000/svg" width="34" height="34" viewBox="0 0 34 34" fill="none"><script xmlns=""/>
<rect width="34" height="34" rx="17" fill="#BD081C"/>
<path d="M17 8C12.027 8 8 12.0301 8 17.0068C8 20.8204 10.3649 24.0796 13.7162 25.3914C13.6351 24.6747 13.5676 23.5928 13.7432 22.8084C13.9054 22.1052 14.7973 18.3321 14.7973 18.3321C14.7973 18.3321 14.527 17.7911 14.527 16.9932C14.527 15.7355 15.2568 14.8024 16.1486 14.8024C16.9189 14.8024 17.2838 15.3839 17.2838 16.0736C17.2838 16.8445 16.7973 18.0075 16.5405 19.0759C16.3243 19.9684 16.9865 20.6987 17.8784 20.6987C19.473 20.6987 20.7027 19.0083 20.7027 16.574C20.7027 14.4237 19.1486 12.9091 16.9459 12.9091C14.3919 12.9091 12.8784 14.8295 12.8784 16.8174C12.8784 17.5883 13.1757 18.4267 13.5541 18.873C13.6216 18.9677 13.6351 19.0353 13.6216 19.13C13.5541 19.414 13.4054 20.0225 13.3784 20.1443C13.3378 20.3065 13.2432 20.3471 13.0811 20.266C11.9595 19.7385 11.2568 18.1022 11.2568 16.7769C11.2568 13.9369 13.3243 11.3268 17.2027 11.3268C20.3243 11.3268 22.7432 13.5582 22.7432 16.5199C22.7432 19.6168 20.7838 22.1187 18.0811 22.1187C17.1757 22.1187 16.3108 21.6454 16.0135 21.0909C16.0135 21.0909 15.5676 22.8084 15.4595 23.2276C15.2568 24.012 14.7027 24.9857 14.3378 25.5943C15.1757 25.8512 16.0676 26 17 26C21.973 26 26 21.9699 26 16.9932C26 12.0301 21.973 8 17 8Z" fill="white"/>
</svg>