<svg width="24" height="24" viewBox="0 0 24 24" fill="none" xmlns="http://www.w3.org/2000/svg">
<path fill-rule="evenodd" clip-rule="evenodd" d="M4.4801 1.59961H4.4001C4.0337 1.59961 3.7185 1.59961 3.4401 1.66521C3.00912 1.76819 2.61506 1.98848 2.30159 2.30167C1.98812 2.61486 1.76747 3.00872 1.6641 3.43961C1.6001 3.71801 1.6001 4.03161 1.6001 4.39961V8.39961C1.6001 8.76601 1.6001 9.08121 1.6657 9.35961C1.76868 9.79059 1.98897 10.1846 2.30216 10.4981C2.61535 10.8116 3.00921 11.0322 3.4401 11.1356C3.7185 11.1996 4.0321 11.1996 4.4001 11.1996H8.4001C8.7665 11.1996 9.0817 11.1996 9.3601 11.134C9.79108 11.031 10.1851 10.8107 10.4986 10.4975C10.8121 10.1844 11.0327 9.7905 11.1361 9.35961C11.2001 9.08121 11.2001 8.76761 11.2001 8.39961V4.39961C11.2001 4.03321 11.2001 3.71801 11.1345 3.43961C11.0315 3.00863 10.8112 2.61457 10.498 2.3011C10.1848 1.98763 9.79099 1.76698 9.3601 1.66361C9.0817 1.59961 8.7681 1.59961 8.4001 1.59961H8.3201H4.4801ZM3.8129 3.22201C3.8817 3.20601 3.9889 3.19961 4.4801 3.19961H8.3201C8.8129 3.19961 8.9185 3.20441 8.9873 3.22201C9.13103 3.25638 9.26242 3.32989 9.36692 3.43439C9.47142 3.53888 9.54493 3.67028 9.5793 3.81401C9.5953 3.88121 9.6001 3.98681 9.6001 4.47961V8.31961C9.6001 8.81241 9.5953 8.91801 9.5777 8.98681C9.54333 9.13054 9.46982 9.26194 9.36532 9.36643C9.26082 9.47093 9.12943 9.54444 8.9857 9.57881C8.9201 9.59321 8.8145 9.59961 8.3201 9.59961H4.4801C3.9873 9.59961 3.8817 9.59481 3.8129 9.57721C3.66917 9.54284 3.53777 9.46933 3.43327 9.36483C3.32878 9.26034 3.25527 9.12894 3.2209 8.98521C3.2065 8.91961 3.2001 8.81401 3.2001 8.31961V4.47961C3.2001 3.98681 3.2049 3.88121 3.2225 3.81241C3.25687 3.66868 3.33038 3.53728 3.43487 3.43279C3.53937 3.32829 3.67077 3.25478 3.8145 3.22041M15.6801 1.59961H15.6001C15.2337 1.59961 14.9185 1.59961 14.6401 1.66521C14.2091 1.76819 13.8151 1.98848 13.5016 2.30167C13.1881 2.61486 12.9675 3.00872 12.8641 3.43961C12.8001 3.71801 12.8001 4.03161 12.8001 4.39961V8.39961C12.8001 8.76601 12.8001 9.08121 12.8657 9.35961C12.9687 9.79059 13.189 10.1846 13.5022 10.4981C13.8154 10.8116 14.2092 11.0322 14.6401 11.1356C14.9185 11.1996 15.2321 11.1996 15.6001 11.1996H19.6001C19.9665 11.1996 20.2817 11.1996 20.5601 11.134C20.9911 11.031 21.3851 10.8107 21.6986 10.4975C22.0121 10.1844 22.2327 9.7905 22.3361 9.35961C22.4001 9.08121 22.4001 8.76761 22.4001 8.39961V4.39961C22.4001 4.03321 22.4001 3.71801 22.3345 3.43961C22.2315 3.00863 22.0112 2.61457 21.698 2.3011C21.3848 1.98763 20.991 1.76698 20.5601 1.66361C20.2817 1.59961 19.9681 1.59961 19.6001 1.59961H19.5201H15.6801ZM15.0129 3.22201C15.0817 3.20601 15.1889 3.19961 15.6801 3.19961H19.5201C20.0129 3.19961 20.1185 3.20441 20.1873 3.22201C20.331 3.25638 20.4624 3.32989 20.5669 3.43439C20.6714 3.53888 20.7449 3.67028 20.7793 3.81401C20.7953 3.88121 20.8001 3.98681 20.8001 4.47961V8.31961C20.8001 8.81241 20.7937 8.91801 20.7777 8.98681C20.7433 9.13054 20.6698 9.26194 20.5653 9.36643C20.4608 9.47093 20.3294 9.54444 20.1857 9.57881C20.1185 9.59481 20.0129 9.59961 19.5201 9.59961H15.6801C15.1873 9.59961 15.0817 9.59481 15.0129 9.57721C14.8692 9.54284 14.7378 9.46933 14.6333 9.36483C14.5288 9.26034 14.4553 9.12894 14.4209 8.98521C14.4065 8.91961 14.4001 8.81401 14.4001 8.31961V4.47961C14.4001 3.98681 14.4049 3.88121 14.4225 3.81241C14.4569 3.66868 14.5304 3.53728 14.6349 3.43279C14.7394 3.32829 14.8708 3.25478 15.0145 3.22041M4.4001 12.7996H8.4001C8.7665 12.7996 9.0817 12.7996 9.3601 12.8652C9.79108 12.9682 10.1851 13.1885 10.4986 13.5017C10.8121 13.8149 11.0327 14.2087 11.1361 14.6396C11.2001 14.918 11.2001 15.2316 11.2001 15.5996V19.5996C11.2001 19.966 11.2001 20.2812 11.1345 20.5596C11.0315 20.9906 10.8112 21.3846 10.498 21.6981C10.1848 22.0116 9.79099 22.2322 9.3601 22.3356C9.0817 22.3996 8.7681 22.3996 8.4001 22.3996H4.4001C4.0337 22.3996 3.7185 22.3996 3.4401 22.334C3.00912 22.231 2.61506 22.0107 2.30159 21.6975C1.98812 21.3844 1.76747 20.9905 1.6641 20.5596C1.6001 20.2812 1.6001 19.9676 1.6001 19.5996V15.5996C1.6001 15.2332 1.6001 14.918 1.6657 14.6396C1.76868 14.2086 1.98897 13.8146 2.30216 13.5011C2.61535 13.1876 3.00921 12.967 3.4401 12.8636C3.7185 12.7996 4.0321 12.7996 4.4001 12.7996ZM4.4801 14.3996C3.9873 14.3996 3.8817 14.4044 3.8129 14.422C3.66917 14.4564 3.53777 14.5299 3.43327 14.6344C3.32878 14.7389 3.25527 14.8703 3.2209 15.014C3.2065 15.0796 3.2001 15.1852 3.2001 15.6796V19.5196C3.2001 20.0124 3.2049 20.118 3.2225 20.1868C3.25687 20.3305 3.33038 20.4619 3.43487 20.5664C3.53937 20.6709 3.67077 20.7444 3.8145 20.7788C3.8817 20.7948 3.9873 20.7996 4.4801 20.7996H8.3201C8.8129 20.7996 8.9185 20.7932 8.9873 20.7772C9.13103 20.7428 9.26242 20.6693 9.36692 20.5648C9.47142 20.4603 9.54493 20.3289 9.5793 20.1852C9.5953 20.118 9.6001 20.0124 9.6001 19.5196V15.6796C9.6001 15.1868 9.5953 15.0812 9.5777 15.0124C9.54333 14.8687 9.46982 14.7373 9.36532 14.6328C9.26082 14.5283 9.12943 14.4548 8.9857 14.4204C8.9201 14.406 8.8145 14.3996 8.3201 14.3996H4.4801ZM15.6801 12.7996H15.6001C15.2337 12.7996 14.9185 12.7996 14.6401 12.8652C14.2091 12.9682 13.8151 13.1885 13.5016 13.5017C13.1881 13.8149 12.9675 14.2087 12.8641 14.6396C12.8001 14.918 12.8001 15.2316 12.8001 15.5996V19.5996C12.8001 19.966 12.8001 20.2812 12.8657 20.5596C12.9687 20.9906 13.189 21.3846 13.5022 21.6981C13.8154 22.0116 14.2092 22.2322 14.6401 22.3356C14.9185 22.4012 15.2337 22.4012 15.6001 22.4012H19.6001C19.9665 22.4012 20.2817 22.4012 20.5601 22.3356C20.9908 22.2324 21.3845 22.012 21.6977 21.6988C22.0108 21.3856 22.2313 20.9919 22.3345 20.5612C22.4001 20.2828 22.4001 19.9676 22.4001 19.6012V15.5996C22.4001 15.2332 22.4001 14.918 22.3345 14.6396C22.2315 14.2086 22.0112 13.8146 21.698 13.5011C21.3848 13.1876 20.991 12.967 20.5601 12.8636C20.2817 12.7996 19.9681 12.7996 19.6001 12.7996H19.5201H15.6801ZM15.0129 14.422C15.0817 14.406 15.1889 14.3996 15.6801 14.3996H19.5201C20.0129 14.3996 20.1185 14.4044 20.1873 14.422C20.331 14.4564 20.4624 14.5299 20.5669 14.6344C20.6714 14.7389 20.7449 14.8703 20.7793 15.014C20.7953 15.0812 20.8001 15.1868 20.8001 15.6796V19.5196C20.8001 20.0124 20.7937 20.118 20.7777 20.1868C20.7433 20.3305 20.6698 20.4619 20.5653 20.5664C20.4608 20.6709 20.3294 20.7444 20.1857 20.7788C20.1185 20.7948 20.0129 20.7996 19.5201 20.7996H15.6801C15.1873 20.7996 15.0817 20.7932 15.0129 20.7772C14.8692 20.7428 14.7378 20.6693 14.6333 20.5648C14.5288 20.4603 14.4553 20.3289 14.4209 20.1852C14.4065 20.1196 14.4001 20.014 14.4001 19.5196V15.6796C14.4001 15.1868 14.4049 15.0812 14.4225 15.0124C14.4569 14.8687 14.5304 14.7373 14.6349 14.6328C14.7394 14.5283 14.8708 14.4548 15.0145 14.4204" fill="black"/>
</svg>
