<svg width="22" height="19" viewBox="0 0 22 19" fill="white" xmlns="http://www.w3.org/2000/svg"><path d="M21.2968 8.12562C21.2969 8.2413 21.2481 8.35174 21.1627 8.42957L13.3815 15.4767C13.2613 15.5856 13.0882 15.6136 12.9397 15.5478C12.7914 15.4821 12.6956 15.3351 12.6956 15.1727V12.2305C8.20625 12.0814 3.2391 12.0895 1.22772 18.2424C1.1725 18.4109 1.01536 18.5249 0.838012 18.5251C0.824992 18.5252 0.811971 18.5246 0.799102 18.5233C0.60799 18.5056 0.454742 18.3576 0.430349 18.1673C-0.119504 13.8985 0.951315 9.92789 3.36765 7.27095C4.47303 6.06052 5.84655 5.12564 7.37815 4.54107C9.07794 3.90923 10.8829 3.6081 12.6959 3.65407V1.07847C12.6959 0.916097 12.7915 0.768987 12.9399 0.703136C13.0883 0.637439 13.2616 0.665273 13.3817 0.774224L21.1629 7.82133C21.2485 7.8993 21.2971 8.00975 21.297 8.12558L21.2968 8.12562Z" fill="[object Object]"></path></svg>