<svg xmlns="http://www.w3.org/2000/svg" width="180" height="47" viewBox="0 0 180 47" fill="none"><script xmlns=""/>
<path d="M4.88942 46.8C2.19271 46.8 0 44.6505 0 42.009V4.79101C0 2.14954 2.19271 0 4.88942 0H175.111C177.806 0 180 2.14954 180 4.79101V42.009C180 44.6505 177.807 46.8 175.111 46.8H4.88942Z" fill="#222222"/>
<path d="M32.7011 14.8175C32.6076 14.8101 30.6186 14.6623 30.6186 14.6623C30.6186 14.6623 29.2373 13.2946 29.0859 13.1426C29.0491 13.1058 29.0039 13.0807 28.9545 13.0649L27.9695 35.7736L35.7518 34.0871C35.7518 34.0871 32.945 15.1563 32.9271 15.0272C32.9093 14.8972 32.7947 14.8259 32.7011 14.8175Z" fill="white"/>
<path d="M28.5216 13.0698C28.5047 13.0751 28.2199 13.1621 27.7489 13.3079C27.2874 11.9833 26.4737 10.7667 25.0409 10.7667C25.001 10.7667 24.961 10.7688 24.92 10.7709C24.5121 10.2339 24.0086 10 23.5723 10C20.2357 10 18.642 14.1616 18.1416 16.276C16.8454 16.6767 15.9246 16.9619 15.8068 16.9987C15.0836 17.2252 15.0604 17.2483 14.9658 17.9279C14.8943 18.4429 13 33.0527 13 33.0527L27.6133 35.7848L28.5994 13.052C28.5699 13.0573 28.5426 13.0636 28.5216 13.0698ZM24.8107 14.0704C24.8107 14.1207 24.8107 14.1679 24.8096 14.2151C23.997 14.4658 23.115 14.7385 22.2309 15.0112C22.7271 13.0992 23.6585 12.1763 24.4722 11.8281C24.6772 12.3409 24.8107 13.0772 24.8107 14.0704ZM23.4809 10.8925C23.6249 10.8925 23.77 10.9408 23.9087 11.0362C22.8396 11.5386 21.6927 12.8024 21.2091 15.3279C20.5016 15.5461 19.8099 15.76 19.1708 15.9582C19.7385 14.0316 21.084 10.8925 23.4809 10.8925ZM24.0559 22.1483C24.0559 22.1483 23.1918 21.6879 22.1332 21.6879C20.5805 21.6879 20.5027 22.6601 20.5027 22.9045C20.5027 24.2406 23.9939 24.7524 23.9939 27.8821C23.9939 30.3447 22.4286 31.9305 20.3177 31.9305C17.7852 31.9305 16.4891 30.3573 16.4891 30.3573L17.1671 28.1223C17.1671 28.1223 18.499 29.2623 19.6218 29.2623C20.3555 29.2623 20.6541 28.6855 20.6541 28.2649C20.6541 26.5218 17.7894 26.4442 17.7894 23.5799C17.7894 21.1697 19.524 18.8372 23.0246 18.8372C24.3734 18.8372 25.0399 19.2232 25.0399 19.2232L24.0559 22.1483ZM25.6853 13.9445C25.6853 13.8564 25.6864 13.7704 25.6864 13.6761C25.6864 12.8527 25.5718 12.1899 25.3878 11.6644C26.1258 11.7567 26.6178 12.5947 26.9342 13.5586C26.5631 13.674 26.1416 13.804 25.6853 13.9445Z" fill="white"/>
<path d="M47.3558 34.5768C44.7382 34.5768 43.524 32.9407 43.2717 31.3203L44.959 31.0686C45.164 32.1856 45.7159 33.1924 47.3558 33.1924C48.5857 33.1924 49.4688 32.4845 49.4688 31.4304C49.4688 30.2977 48.8696 29.8258 47.1193 29.3549C44.8486 28.8042 43.6502 27.9862 43.6502 26.0511C43.6502 24.3049 45.0851 23.0306 47.2454 23.0306C49.3742 23.0306 50.683 24.1633 50.9826 25.8309L49.3269 26.0983C49.1061 25.0128 48.3492 24.3993 47.2465 24.3993C45.985 24.3993 45.3227 25.0128 45.3227 25.9253C45.3227 26.8692 45.7327 27.3412 47.5934 27.8131C49.8798 28.3795 51.1886 29.1661 51.1886 31.2742C51.1876 33.1935 49.658 34.5768 47.3558 34.5768Z" fill="white"/>
<path d="M52.7932 22.3986H54.4647V27.4485C54.8431 26.6777 55.7104 26.0327 56.9877 26.0327C58.5645 26.0327 59.6526 26.9451 59.6526 29.1161V34.4178H57.9495V29.2105C57.9495 27.9992 57.445 27.4485 56.3569 27.4485C55.3477 27.4485 54.4647 28.0936 54.4647 29.3521V34.4178H52.7932V22.3986Z" fill="white"/>
<path d="M61.0442 29.9974C61.0442 27.5904 62.7157 26.0329 64.9548 26.0329C67.1939 26.0329 68.8654 27.5746 68.8654 29.9659V30.6109C68.8654 33.0337 67.1782 34.5754 64.939 34.5754C62.6841 34.5754 61.0442 33.0022 61.0442 30.6424V29.9974ZM64.9548 33.2382C66.3109 33.2382 67.1309 32.2313 67.1309 30.6424V29.9816C67.1309 28.3612 66.2951 27.3701 64.9548 27.3701C63.5987 27.3701 62.763 28.3455 62.763 29.9659V30.6266C62.763 32.247 63.5672 33.2382 64.9548 33.2382Z" fill="white"/>
<path d="M71.9857 26.1902V27.496C72.443 26.7094 73.4049 26.0329 74.5717 26.0329C76.5113 26.0329 77.9462 27.4488 77.9462 29.903V30.6109C77.9462 33.0808 76.5586 34.5754 74.5402 34.5754C73.3102 34.5754 72.4114 33.9461 71.9857 33.1595V37.2341H70.3142V26.1902H71.9857ZM74.1628 33.2214C75.4874 33.2214 76.2127 32.3247 76.2127 30.6571V29.9491C76.2127 28.2186 75.3297 27.3691 74.1628 27.3691C72.8855 27.3691 71.9552 28.2186 71.9552 29.9963V30.6099C71.9541 32.3886 72.8214 33.2214 74.1628 33.2214Z" fill="white"/>
<path d="M79.2566 23.8C79.2566 23.2336 79.7139 22.7932 80.2815 22.7932C80.865 22.7932 81.3223 23.2336 81.3223 23.8C81.3223 24.3664 80.865 24.8069 80.2815 24.8069C79.6981 24.8069 79.2566 24.3664 79.2566 23.8ZM79.4458 26.1913H81.1331V34.4191H79.4458V26.1913Z" fill="white"/>
<path d="M83.4145 27.5321H82.3423V26.1949H83.4145V25.015C83.4145 23.2844 84.3291 22.3405 86.0794 22.3405C86.6156 22.3405 87.0256 22.4034 87.3567 22.5293V23.8665C87.1359 23.7564 86.6944 23.6777 86.2844 23.6777C85.4172 23.6777 85.1176 24.1812 85.1176 24.952V26.1949H87.2621V27.5321H85.1176V34.4227H83.4145V27.5321Z" fill="white"/>
<path d="M91.9772 31.6374L93.9325 26.1941H95.604L91.3622 37.238H89.675L91.0784 33.6039L88.0193 26.1941H89.8484L91.9772 31.6374Z" fill="white"/>
<path d="M105.826 31.5322H101.836L100.985 34.4269H99.3289L102.72 23.1785H105.1L108.458 34.4269H106.66L105.826 31.5322ZM102.215 30.2107H105.447L103.823 24.6415L102.215 30.2107Z" fill="white"/>
<path d="M111.389 26.1902V27.496C111.847 26.7094 112.809 26.0329 113.975 26.0329C115.915 26.0329 117.349 27.4488 117.349 29.903V30.6109C117.349 33.0808 115.963 34.5754 113.944 34.5754C112.714 34.5754 111.816 33.9461 111.389 33.1595V37.2341H109.717V26.1902H111.389ZM113.565 33.2214C114.889 33.2214 115.615 32.3247 115.615 30.6571V29.9491C115.615 28.2186 114.732 27.3691 113.565 27.3691C112.288 27.3691 111.357 28.2186 111.357 29.9963V30.6099C111.357 32.3886 112.223 33.2214 113.565 33.2214Z" fill="white"/>
<path d="M120.488 26.1902V27.496C120.945 26.7094 121.907 26.0329 123.074 26.0329C125.014 26.0329 126.449 27.4488 126.449 29.903V30.6109C126.449 33.0808 125.061 34.5754 123.043 34.5754C121.813 34.5754 120.915 33.9461 120.488 33.1595V37.2341H118.817V26.1902H120.488ZM122.664 33.2214C123.989 33.2214 124.713 32.3247 124.713 30.6571V29.9491C124.713 28.2186 123.83 27.3691 122.664 27.3691C121.386 27.3691 120.456 28.2186 120.456 29.9963V30.6099C120.457 32.3886 121.324 33.2214 122.664 33.2214Z" fill="white"/>
<path d="M134.745 34.5768C132.127 34.5768 130.913 32.9407 130.661 31.3203L132.347 31.0686C132.552 32.1856 133.105 33.1924 134.744 33.1924C135.974 33.1924 136.857 32.4845 136.857 31.4304C136.857 30.2977 136.259 29.8258 134.508 29.3549C132.238 28.8042 131.039 27.9862 131.039 26.0511C131.039 24.3049 132.473 23.0306 134.634 23.0306C136.762 23.0306 138.072 24.1633 138.371 25.8309L136.716 26.0983C136.495 25.0128 135.738 24.3993 134.635 24.3993C133.374 24.3993 132.712 25.0128 132.712 25.9253C132.712 26.8692 133.122 27.3412 134.981 27.8131C137.269 28.3795 138.576 29.1661 138.576 31.2742C138.576 33.1935 137.048 34.5768 134.745 34.5768Z" fill="white"/>
<path d="M142.202 23.9492V26.1989H144.268V27.5361H142.202V32.0984C142.202 32.8535 142.58 33.1525 143.275 33.1525C143.685 33.1525 144.079 33.0895 144.363 32.9637V34.3009C144.047 34.4425 143.605 34.5369 142.99 34.5369C141.304 34.5369 140.516 33.7031 140.516 32.2557V27.5361H139.428V26.1989H140.516V23.9492H142.202Z" fill="white"/>
<path d="M145.307 29.9974C145.307 27.5904 146.979 26.0329 149.218 26.0329C151.457 26.0329 153.128 27.5746 153.128 29.9659V30.6109C153.128 33.0337 151.441 34.5754 149.202 34.5754C146.947 34.5754 145.308 33.0022 145.308 30.6424V29.9974H145.307ZM149.218 33.2382C150.574 33.2382 151.393 32.2313 151.393 30.6424V29.9816C151.393 28.3612 150.557 27.3701 149.218 27.3701C147.862 27.3701 147.026 28.3455 147.026 29.9659V30.6266C147.026 32.247 147.83 33.2382 149.218 33.2382Z" fill="white"/>
<path d="M154.577 26.197H156.249V27.6601C156.752 26.6533 157.463 26.0712 159.087 26.0869V27.6759C157.225 27.6916 156.249 28.195 156.249 29.9098V34.4249H154.577V26.197Z" fill="white"/>
<path d="M163.548 34.5754C161.293 34.5754 159.702 33.0966 159.702 30.6424V29.9974C159.702 27.5904 161.279 26.0329 163.469 26.0329C165.393 26.0329 167.081 27.1656 167.081 29.9187V30.6581H161.405C161.421 32.4358 162.225 33.2696 163.597 33.2696C164.796 33.2696 165.378 32.5302 165.552 31.9167L167.018 32.2628C166.717 33.3808 165.598 34.5754 163.548 34.5754ZM161.419 29.495H165.409V29.4478C165.345 27.9375 164.62 27.3082 163.468 27.3082C162.444 27.3082 161.577 27.9533 161.419 29.495Z" fill="white"/>
<path d="M44.853 13.2172H47.8869V13.9807H45.8191V15.4794H47.4717V16.2283H45.8191V18.3196H44.853V13.2172Z" fill="white"/>
<path d="M49.2051 13.2172H50.1785V18.3206H49.2051V13.2172Z" fill="white"/>
<path d="M51.7974 13.2172H52.9275L54.8019 16.7569V13.2172H55.6818V18.3206H54.6947L52.67 14.5019V18.3206H51.7964L51.7974 13.2172Z" fill="white"/>
<path d="M58.8849 13.2172C60.5091 13.2172 61.3249 14.0803 61.3249 15.4868V16.0143C61.3249 17.4061 60.5238 18.3196 58.8849 18.3196H57.2534V13.2172H58.8849ZM58.2195 13.9734V17.5571H58.8492C59.8573 17.5571 60.323 17.0138 60.323 16.0154V15.5015C60.323 14.5229 59.8941 13.9734 58.8418 13.9734H58.2195Z" fill="white"/>
<path d="M64.79 13.2172H65.7624V18.3206H64.79V13.2172Z" fill="white"/>
<path d="M68.3646 13.9807H67.0264V13.2172H70.6679V13.9807H69.338V18.3206H68.3656L68.3646 13.9807Z" fill="white"/>
<path d="M73.7502 16.0461V15.4819C73.7502 14.0901 74.6806 13.1546 76.0178 13.1546C77.3623 13.1546 78.2716 14.0608 78.2716 15.4746V16.0241C78.2716 17.4306 77.3917 18.3934 76.0115 18.3934C74.6312 18.3934 73.7502 17.4306 73.7502 16.0461ZM77.2708 16.0388V15.4819C77.2708 14.5464 76.8272 13.9192 76.0188 13.9192C75.2104 13.9192 74.7594 14.5474 74.7594 15.4819V16.0388C74.7594 17.0163 75.2178 17.6162 76.0188 17.6162C76.8199 17.6162 77.2708 17.0089 77.2708 16.0388Z" fill="white"/>
<path d="M79.6617 13.2172H80.7918L82.6661 16.7569V13.2172H83.546V18.3206H82.5589L80.5342 14.5019V18.3206H79.6606L79.6617 13.2172Z" fill="white"/>
<path d="M88.1585 13.9807H86.8203V13.2172H90.4618V13.9807H89.1309V18.3206H88.1585V13.9807Z" fill="white"/>
<path d="M91.7024 13.2172H92.6685V15.3588H94.6438V13.2172H95.6088V18.3206H94.6438V16.1433H92.6685V18.3206H91.7024V13.2172Z" fill="white"/>
<path d="M97.1907 13.2172H100.246V13.9807H98.1568V15.3368H99.844V16.0584H98.1568V17.5571H100.36V18.3206H97.1907V13.2172Z" fill="white"/>
</svg>