<svg width="20" height="20" viewBox="0 0 20 20" fill="none" xmlns="http://www.w3.org/2000/svg">
<path d="M9.99998 1.11108C8.24192 1.11108 6.52334 1.63241 5.06157 2.60913C3.5998 3.58586 2.46049 4.97411 1.78771 6.59834C1.11494 8.22257 0.938906 10.0098 1.28189 11.7341C1.62487 13.4584 2.47145 15.0422 3.71458 16.2854C4.95772 17.5285 6.54157 18.3751 8.26584 18.7181C9.99012 19.061 11.7774 18.885 13.4016 18.2122C15.0258 17.5395 16.4141 16.4001 17.3908 14.9384C18.3675 13.4766 18.8889 11.758 18.8889 9.99997C18.8889 7.64249 17.9524 5.38157 16.2854 3.71458C14.6184 2.04759 12.3575 1.11108 9.99998 1.11108ZM9.99998 17.7778C8.46168 17.7778 6.95792 17.3216 5.67888 16.467C4.39983 15.6123 3.40293 14.3976 2.81425 12.9764C2.22557 11.5552 2.07154 9.99135 2.37165 8.4826C2.67175 6.97386 3.41252 5.588 4.50026 4.50025C5.588 3.41251 6.97387 2.67175 8.48261 2.37164C9.99135 2.07154 11.5552 2.22556 12.9764 2.81424C14.3976 3.40293 15.6123 4.39982 16.467 5.67887C17.3216 6.95792 17.7778 8.46167 17.7778 9.99997C17.7778 12.0628 16.9583 14.0411 15.4997 15.4997C14.0411 16.9583 12.0628 17.7778 9.99998 17.7778Z" fill="#06C270"/>
<path d="M14.0469 7.74995C13.9712 7.67461 13.8686 7.63232 13.7618 7.63232C13.6549 7.63232 13.5524 7.67461 13.4766 7.74995L8.98656 12.2197L6.55952 9.79271C6.4855 9.71279 6.38276 9.66554 6.2739 9.66137C6.16504 9.6572 6.05898 9.69644 5.97906 9.77046C5.89913 9.84449 5.85189 9.94723 5.84771 10.0561C5.84354 10.1649 5.88278 10.271 5.95681 10.3509L8.98656 13.3726L14.0469 8.32435C14.0849 8.28675 14.1149 8.24201 14.1355 8.19272C14.156 8.14342 14.1666 8.09055 14.1666 8.03715C14.1666 7.98375 14.156 7.93088 14.1355 7.88159C14.1149 7.8323 14.0849 7.78756 14.0469 7.74995Z" fill="#06C270"/>
</svg>
