<svg width="24" height="24" viewBox="0 0 24 24" fill="none" xmlns="http://www.w3.org/2000/svg">
<path d="M11.9999 18.2602C12.4896 18.2602 12.8866 17.8632 12.8866 17.3735C12.8866 16.8838 12.4896 16.4868 11.9999 16.4868C11.5103 16.4868 11.1133 16.8838 11.1133 17.3735C11.1133 17.8632 11.5103 18.2602 11.9999 18.2602Z" fill="#FF3B3B"/>
<path d="M11.9997 15.0731C11.8229 15.0731 11.6533 15.0028 11.5283 14.8778C11.4032 14.7528 11.333 14.5832 11.333 14.4064V6.40641C11.333 6.2296 11.4032 6.06003 11.5283 5.93501C11.6533 5.80998 11.8229 5.73975 11.9997 5.73975C12.1765 5.73975 12.3461 5.80998 12.4711 5.93501C12.5961 6.06003 12.6663 6.2296 12.6663 6.40641V14.4064C12.6663 14.5832 12.5961 14.7528 12.4711 14.8778C12.3461 15.0028 12.1765 15.0731 11.9997 15.0731Z" fill="#FF3B3B"/>
<path d="M11.9997 22.6668C9.89001 22.6668 7.82772 22.0412 6.0736 20.8692C4.31947 19.6971 2.9523 18.0312 2.14496 16.0821C1.33763 14.133 1.12639 11.9883 1.53797 9.9192C1.94955 7.85007 2.96545 5.94946 4.45721 4.4577C5.94897 2.96594 7.84959 1.95003 9.91872 1.53846C11.9878 1.12688 14.1326 1.33812 16.0816 2.14545C18.0307 2.95279 19.6966 4.31996 20.8687 6.07408C22.0408 7.82821 22.6663 9.8905 22.6663 12.0002C22.6663 14.8291 21.5425 17.5423 19.5422 19.5426C17.5418 21.543 14.8287 22.6668 11.9997 22.6668ZM11.9997 2.66683C10.1537 2.66683 8.34922 3.21422 6.81436 4.23978C5.2795 5.26534 4.08322 6.72301 3.3768 8.42846C2.67039 10.1339 2.48555 12.0105 2.84568 13.821C3.20581 15.6315 4.09473 17.2945 5.40002 18.5998C6.70531 19.9051 8.36835 20.794 10.1788 21.1542C11.9893 21.5143 13.8659 21.3295 15.5714 20.623C17.2768 19.9166 18.7345 18.7203 19.7601 17.1855C20.7856 15.6506 21.333 13.8461 21.333 12.0002C21.333 9.52481 20.3497 7.15084 18.5993 5.4005C16.849 3.65016 14.475 2.66683 11.9997 2.66683Z" fill="#FF3B3B"/>
</svg>
