<svg width="24" height="24" viewBox="0 0 24 24" fill="none" xmlns="http://www.w3.org/2000/svg">
<path d="M11.9997 1.3335C9.89001 1.3335 7.82772 1.95909 6.0736 3.13115C4.31947 4.30322 2.9523 5.96913 2.14496 7.91821C1.33763 9.86728 1.12639 12.012 1.53797 14.0811C1.94955 16.1503 2.96545 18.0509 4.45721 19.5426C5.94897 21.0344 7.84959 22.0503 9.91872 22.4619C11.9878 22.8734 14.1326 22.6622 16.0816 21.8549C18.0307 21.0475 19.6966 19.6804 20.8687 17.9262C22.0408 16.1721 22.6663 14.1098 22.6663 12.0002C22.6663 9.17119 21.5425 6.45808 19.5422 4.45769C17.5418 2.4573 14.8287 1.3335 11.9997 1.3335ZM11.9997 21.3335C10.1537 21.3335 8.34922 20.7861 6.81436 19.7605C5.2795 18.735 4.08322 17.2773 3.3768 15.5719C2.67039 13.8664 2.48555 11.9898 2.84568 10.1793C3.20581 8.36883 4.09473 6.70579 5.40002 5.4005C6.70531 4.09521 8.36835 3.2063 10.1788 2.84617C11.9893 2.48604 13.8659 2.67087 15.5714 3.37729C17.2768 4.0837 18.7345 5.27998 19.7601 6.81484C20.7856 8.3497 21.333 10.1542 21.333 12.0002C21.333 14.4755 20.3497 16.8495 18.5993 18.5998C16.849 20.3502 14.475 21.3335 11.9997 21.3335Z" fill="#06C270"/>
<path d="M16.856 9.29984C16.7651 9.20944 16.6421 9.15869 16.5138 9.15869C16.3856 9.15869 16.2626 9.20944 16.1716 9.29984L10.7836 14.6636L7.87113 11.7512C7.78231 11.6552 7.65901 11.5986 7.52838 11.5935C7.39775 11.5885 7.27048 11.6356 7.17457 11.7245C7.07866 11.8133 7.02197 11.9366 7.01696 12.0672C7.01196 12.1978 7.05905 12.3251 7.14788 12.421L10.7836 16.047L16.856 9.98912C16.9015 9.944 16.9376 9.89031 16.9623 9.83116C16.9869 9.77201 16.9996 9.70856 16.9996 9.64448C16.9996 9.5804 16.9869 9.51696 16.9623 9.45781C16.9376 9.39866 16.9015 9.34497 16.856 9.29984Z" fill="#06C270"/>
</svg>
