<svg width="24" height="24" viewBox="0 0 24 24" fill="none" xmlns="http://www.w3.org/2000/svg">
<path d="M11.9802 7.89987C12.4957 7.89987 12.9135 7.482 12.9135 6.96654C12.9135 6.45107 12.4957 6.0332 11.9802 6.0332C11.4647 6.0332 11.0469 6.45107 11.0469 6.96654C11.0469 7.482 11.4647 7.89987 11.9802 7.89987Z" fill="#0063F7"/>
<path d="M13.9997 16.6666H12.6663V9.3999H10.6663C10.4895 9.3999 10.32 9.47014 10.1949 9.59516C10.0699 9.72019 9.99967 9.88976 9.99967 10.0666C9.99967 10.2434 10.0699 10.4129 10.1949 10.538C10.32 10.663 10.4895 10.7332 10.6663 10.7332H11.333V16.6666H9.99967C9.82286 16.6666 9.65329 16.7368 9.52827 16.8618C9.40325 16.9869 9.33301 17.1564 9.33301 17.3332C9.33301 17.51 9.40325 17.6796 9.52827 17.8046C9.65329 17.9297 9.82286 17.9999 9.99967 17.9999H13.9997C14.1765 17.9999 14.3461 17.9297 14.4711 17.8046C14.5961 17.6796 14.6663 17.51 14.6663 17.3332C14.6663 17.1564 14.5961 16.9869 14.4711 16.8618C14.3461 16.7368 14.1765 16.6666 13.9997 16.6666Z" fill="#0063F7"/>
<path d="M11.9997 22.6668C9.89001 22.6668 7.82772 22.0412 6.0736 20.8692C4.31947 19.6971 2.9523 18.0312 2.14496 16.0821C1.33763 14.133 1.12639 11.9883 1.53797 9.9192C1.94955 7.85007 2.96545 5.94946 4.45721 4.4577C5.94897 2.96594 7.84959 1.95003 9.91872 1.53846C11.9878 1.12688 14.1326 1.33812 16.0816 2.14545C18.0307 2.95279 19.6966 4.31996 20.8687 6.07408C22.0408 7.82821 22.6663 9.8905 22.6663 12.0002C22.6663 14.8291 21.5425 17.5423 19.5422 19.5426C17.5418 21.543 14.8287 22.6668 11.9997 22.6668ZM11.9997 2.66683C10.1537 2.66683 8.34922 3.21422 6.81436 4.23978C5.2795 5.26534 4.08322 6.72301 3.3768 8.42846C2.67039 10.1339 2.48555 12.0105 2.84568 13.821C3.20581 15.6315 4.09473 17.2945 5.40002 18.5998C6.70531 19.9051 8.36835 20.794 10.1788 21.1542C11.9893 21.5143 13.8659 21.3295 15.5714 20.623C17.2768 19.9166 18.7345 18.7203 19.7601 17.1855C20.7856 15.6506 21.333 13.8461 21.333 12.0002C21.333 9.52481 20.3497 7.15084 18.5993 5.4005C16.849 3.65016 14.475 2.66683 11.9997 2.66683Z" fill="#0063F7"/>
</svg>
