<svg width="16" height="17" viewBox="0 0 16 17" fill="none" xmlns="http://www.w3.org/2000/svg">
<path d="M2.66675 3.19324H6.66675V7.19324H2.66675V3.19324ZM9.33341 3.19324H13.3334V7.19324H9.33341V3.19324ZM2.66675 9.8599H6.66675V13.8599H2.66675V9.8599ZM9.33341 11.8599C9.33341 12.3903 9.54413 12.899 9.9192 13.2741C10.2943 13.6492 10.803 13.8599 11.3334 13.8599C11.8638 13.8599 12.3726 13.6492 12.7476 13.2741C13.1227 12.899 13.3334 12.3903 13.3334 11.8599C13.3334 11.3295 13.1227 10.8208 12.7476 10.4457C12.3726 10.0706 11.8638 9.8599 11.3334 9.8599C10.803 9.8599 10.2943 10.0706 9.9192 10.4457C9.54413 10.8208 9.33341 11.3295 9.33341 11.8599Z" stroke="black" strokeLinecap="round" strokeLinejoin="round"/>
</svg>
