<svg xmlns="http://www.w3.org/2000/svg" width="36" height="36" viewBox="0 0 36 36" fill="none"><script xmlns=""/>
  <rect width="36" height="36" rx="18" fill="#1D9BF0"/>
  <g clip-path="url(#clip0_2879_13370)">
    <path d="M24.9319 14.42C24.9425 14.5732 24.9425 14.7264 24.9425 14.881C24.9425 19.5913 21.3476 25.0238 14.7741 25.0238V25.021C12.8323 25.0238 10.9308 24.469 9.29614 23.4229C9.5785 23.4568 9.86227 23.4737 10.1468 23.4744C11.756 23.4758 13.3192 22.9372 14.5852 21.9455C13.0559 21.9165 11.7149 20.9219 11.2465 19.4699C11.7822 19.573 12.3341 19.5518 12.8599 19.4085C11.1927 19.0725 9.99319 17.6113 9.99319 15.9144C9.99319 15.8989 9.99319 15.884 9.99319 15.8692C10.49 16.1452 11.0462 16.2984 11.6151 16.3153C10.0448 15.2685 9.56081 13.1848 10.5091 11.5556C12.3235 13.7826 15.0006 15.1365 17.8744 15.2798C17.5864 14.0417 17.9799 12.7443 18.9083 11.8739C20.3477 10.5243 22.6115 10.5935 23.9645 12.0285C24.7649 11.8711 25.532 11.5782 26.234 11.1631C25.9672 11.9883 25.4089 12.6892 24.663 13.1346C25.3714 13.0513 26.0635 12.8622 26.7152 12.5735C26.2354 13.2906 25.6311 13.9153 24.9319 14.42Z" fill="white"/>
  </g>
  <defs>
    <clipPath id="clip0_2879_13370">
      <rect width="17.55" height="14.4" fill="white" transform="translate(9.22498 10.7998)"/>
    </clipPath>
  </defs>
</svg>