<svg width="24" height="24" viewBox="0 0 24 24" fill="none" xmlns="http://www.w3.org/2000/svg">
<path d="M0 12C0 5.37258 5.37258 0 12 0C18.6274 0 24 5.37258 24 12C24 18.6274 18.6274 24 12 24C5.37258 24 0 18.6274 0 12Z" fill="#003D68" fill-opacity="0.1"/>
<path d="M16.898 7.10197C16.5084 6.71232 15.8766 6.71232 15.487 7.10197L12 10.5889L8.51303 7.10197C8.12337 6.71232 7.49162 6.71232 7.10197 7.10197C6.71232 7.49162 6.71232 8.12337 7.10197 8.51303L10.5889 12L7.10197 15.487C6.71232 15.8766 6.71232 16.5084 7.10197 16.898C7.49162 17.2877 8.12337 17.2877 8.51303 16.898L12 13.4111L15.487 16.898C15.8766 17.2877 16.5084 17.2877 16.898 16.898C17.2877 16.5084 17.2877 15.8766 16.898 15.487L13.4111 12L16.898 8.51303C17.2877 8.12337 17.2877 7.49162 16.898 7.10197Z" fill="#003D68" stroke="#003D68" stroke-width="0.5"/>
</svg>
