<svg width="12" height="13" viewBox="0 0 12 13" fill="none" xmlns="http://www.w3.org/2000/svg">
<path d="M0.442221 4.15103C-0.147407 4.64811 -0.147407 5.41867 0.442221 5.91593C1.03185 6.41302 1.94585 6.41302 2.53569 5.91593L4.51113 4.25055V11.7572C4.51113 12.4532 5.15979 13 5.98533 13C6.81089 13 7.45953 12.4532 7.45953 11.7572V4.25055L9.46435 5.94069C10.054 6.43778 10.968 6.43778 11.5578 5.94069C11.8527 5.69206 12 5.36905 12 5.07064C12 4.74745 11.8525 4.42441 11.5578 4.20057L7.01739 0.372775C6.75207 0.149108 6.36873 0 5.98533 0C5.60193 0 5.2188 0.124318 4.95328 0.372775L0.442221 4.15103Z" fill="white"/>
</svg>
