<svg width="24" height="24" viewBox="0 0 24 24" fill="none" xmlns="http://www.w3.org/2000/svg">
<path d="M1 12C1 5.92487 5.92487 1 12 1C18.0751 1 23 5.92487 23 12C23 18.0751 18.0751 23 12 23C5.92487 23 1 18.0751 1 12Z" fill="white" stroke="white" stroke-width="2"/>
<g clip-path="url(#clip0_1393_535)">
<path d="M6.44222 10.151C5.85259 10.6481 5.85259 11.4187 6.44222 11.9159C7.03185 12.413 7.94585 12.413 8.53569 11.9159L10.5111 10.2506V17.7572C10.5111 18.4532 11.1598 19 11.9853 19C12.8109 19 13.4595 18.4532 13.4595 17.7572V10.2506L15.4643 11.9407C16.054 12.4378 16.968 12.4378 17.5578 11.9407C17.8527 11.6921 18 11.369 18 11.0706C18 10.7474 17.8525 10.4244 17.5578 10.2006L13.0174 6.37277C12.7521 6.14911 12.3687 6 11.9853 6C11.6019 6 11.2188 6.12432 10.9533 6.37277L6.44222 10.151Z" fill="#003D68"/>
</g>
<defs>
<clipPath id="clip0_1393_535">
<rect width="12" height="13" fill="white" transform="translate(6 6)"/>
</clipPath>
</defs>
</svg>
