<svg xmlns="http://www.w3.org/2000/svg" width="9" height="11" viewBox="0 0 9 11" fill="none">
  <path d="M0.331666 3.51241C-0.110555 3.93302 -0.110555 4.58503 0.331666 5.00579C0.773888 5.4264 1.45939 5.4264 1.90177 5.00579L3.38335 3.59662V9.94838C3.38335 10.5373 3.86984 11 4.489 11C5.10817 11 5.59465 10.5373 5.59465 9.94838V3.59662L7.09826 5.02674C7.54048 5.44735 8.22599 5.44735 8.66837 5.02674C8.88956 4.81636 9 4.54304 9 4.29054C9 4.01707 8.8894 3.74373 8.66837 3.55433L5.26304 0.315425C5.06405 0.126168 4.77655 0 4.489 0C4.20145 0 3.9141 0.105192 3.71496 0.315425L0.331666 3.51241Z" fill="white"/>
</svg>