<svg width="28" height="28" viewBox="0 0 28 28" fill="none" xmlns="http://www.w3.org/2000/svg">
<g clip-path="url(#clip0_385_2506)">
<path d="M14 28C21.732 28 28 21.732 28 14C28 6.26801 21.732 0 14 0C6.26801 0 0 6.26801 0 14C0 21.732 6.26801 28 14 28Z" fill="#003D68"/>
<path d="M7.94639 11.5998C7.30433 12.2065 7.30433 13.147 7.94639 13.7539C8.58843 14.3606 9.58367 14.3606 10.2259 13.7539L12.377 11.7213V20.8833C12.377 21.7327 13.0833 22.4002 13.9822 22.4002C14.8811 22.4002 15.5874 21.7327 15.5874 20.8833V11.7213L17.7706 13.7841C18.4125 14.3908 19.4077 14.3908 20.0501 13.7841C20.3712 13.4807 20.5315 13.0864 20.5315 12.7222C20.5315 12.3278 20.3709 11.9335 20.0501 11.6603L15.106 6.98843C14.8171 6.71543 14.3997 6.53345 13.9822 6.53345C13.5647 6.53345 13.1475 6.68517 12.8584 6.98843L7.94639 11.5998Z" fill="white"/>
</g>
<defs>
<clipPath id="clip0_385_2506">
<rect width="28" height="28" fill="white"/>
</clipPath>
</defs>
</svg>
