<svg width="24" height="24" viewBox="0 0 24 24" fill="none" xmlns="http://www.w3.org/2000/svg">
<path d="M10.2838 15.6308L15.6091 11.6402V18.4439C15.6091 18.673 15.4768 18.8692 15.2452 18.9345C15.1459 18.9672 15.0468 19 14.9476 19C14.8153 19 14.6829 18.9345 14.5837 18.8692L10.2838 15.6308ZM20.5373 5.49062C20.3057 5.19628 19.9088 5.13079 19.6112 5.35988L15.6089 8.36924V5.55614C15.6089 5.32706 15.4767 5.13084 15.2451 5.03272C15.0466 4.96724 14.782 5.00009 14.6166 5.13084L9.3906 9.05603L6.54608 9.05626C6.01682 9.05626 5.35536 9.38346 5.35536 9.87402V14.0936C5.35536 14.5841 6.01681 14.9439 6.54608 14.9439H6.81072L3.2715 17.5934C2.97387 17.8225 2.90765 18.215 3.1393 18.5094C3.37094 18.8037 3.7678 18.8692 4.06541 18.6401L20.4379 6.40638C20.7023 6.17752 20.7688 5.78519 20.5373 5.49062Z" fill="white" fill-opacity="0.9"/>
</svg>
