<svg xmlns="http://www.w3.org/2000/svg" width="12" height="74" viewBox="0 0 12 74" fill="none"><script xmlns=""/>
<path d="M0.442222 4.47035C-0.147407 5.00567 -0.147407 5.83549 0.442222 6.371C1.03185 6.90632 1.94586 6.90632 2.5357 6.371L4.51113 4.57752V12.6616C4.51113 13.4111 5.15978 14 5.98533 14C6.81089 14 7.45954 13.4111 7.45954 12.6616V4.57752L9.46435 6.39767C10.054 6.93299 10.968 6.93299 11.5578 6.39767C11.8527 6.12991 12 5.78205 12 5.46068C12 5.11264 11.8525 4.76475 11.5578 4.52369L7.01738 0.40145C6.75207 0.160577 6.36873 0 5.98533 0C5.60194 0 5.2188 0.133881 4.95329 0.40145L0.442222 4.47035Z" fill="white"/>
<path d="M0.442222 34.4703C-0.147407 35.0057 -0.147407 35.8355 0.442222 36.371C1.03185 36.9063 1.94586 36.9063 2.5357 36.371L4.51113 34.5775V42.6616C4.51113 43.4111 5.15978 44 5.98533 44C6.81089 44 7.45954 43.4111 7.45954 42.6616V34.5775L9.46435 36.3977C10.054 36.933 10.968 36.933 11.5578 36.3977C11.8527 36.1299 12 35.782 12 35.4607C12 35.1126 11.8525 34.7648 11.5578 34.5237L7.01738 30.4015C6.75207 30.1606 6.36873 30 5.98533 30C5.60194 30 5.2188 30.1339 4.95329 30.4015L0.442222 34.4703Z" fill="white"/>
<path d="M11.4103 62.4441C11.0971 62.2096 10.7037 62.1089 10.3164 62.1643C9.92905 62.2196 9.57952 62.4264 9.34451 62.7392L4.93548 68.6179L2.51788 66.2003C2.24128 65.9237 1.86612 65.7683 1.47494 65.7683C1.08376 65.7683 0.708606 65.9237 0.432 66.2003C0.155395 66.4769 0 66.8521 0 67.2432C0 67.6344 0.155395 68.0096 0.432 68.2862L3.31352 71.1689C3.55713 71.4055 3.84798 71.5881 4.16702 71.7045C4.48607 71.821 4.82612 71.8687 5.1649 71.8447C5.50368 71.8206 5.83356 71.7253 6.13293 71.5649C6.43231 71.4045 6.69443 71.1826 6.90213 70.9139L11.7054 64.5087C11.9399 64.1957 12.0405 63.8024 11.9851 63.4153C11.9298 63.0282 11.7231 62.6789 11.4103 62.4441Z" fill="white"/>
</svg>