<svg width="20" height="20" viewBox="0 0 20 20" fill="none" xmlns="http://www.w3.org/2000/svg">
<path d="M10.0001 15.2168C10.4082 15.2168 10.739 14.886 10.739 14.4779C10.739 14.0698 10.4082 13.739 10.0001 13.739C9.59204 13.739 9.26123 14.0698 9.26123 14.4779C9.26123 14.886 9.59204 15.2168 10.0001 15.2168Z" fill="#FAAD14"/>
<path d="M9.99989 12.561C9.85255 12.561 9.71124 12.5024 9.60705 12.3983C9.50287 12.2941 9.44434 12.1528 9.44434 12.0054V5.33876C9.44434 5.19142 9.50287 5.05011 9.60705 4.94592C9.71124 4.84173 9.85255 4.7832 9.99989 4.7832C10.1472 4.7832 10.2885 4.84173 10.3927 4.94592C10.4969 5.05011 10.5554 5.19142 10.5554 5.33876V12.0054C10.5554 12.1528 10.4969 12.2941 10.3927 12.3983C10.2885 12.5024 10.1472 12.561 9.99989 12.561Z" fill="#FAAD14"/>
<path d="M8.36776 0.933848C8.52217 0.652824 8.74925 0.418452 9.02525 0.255244C9.30126 0.0920368 9.61605 0.00599006 9.9367 0.00610363C10.2573 0.00621719 10.5721 0.0924869 10.848 0.25589C11.1239 0.419293 11.3508 0.653826 11.505 0.934959L19.2216 15.135C19.3696 15.4074 19.4443 15.7136 19.4383 16.0236C19.4322 16.3336 19.3457 16.6367 19.1872 16.9032C19.0288 17.1697 18.8037 17.3904 18.5342 17.5437C18.2647 17.6971 17.96 17.7777 17.65 17.7777H2.23442C1.92089 17.7848 1.61101 17.7092 1.33587 17.5587C1.06073 17.4082 0.829996 17.188 0.666799 16.9202C0.503602 16.6524 0.41368 16.3464 0.406048 16.0328C0.398415 15.7193 0.473341 15.4093 0.623314 15.1338L8.36776 0.933848ZM1.59998 15.6655C1.54274 15.7707 1.51441 15.8893 1.51788 16.009C1.52135 16.1287 1.55649 16.2454 1.61972 16.3472C1.68296 16.4489 1.77203 16.5321 1.87786 16.5882C1.98369 16.6443 2.10251 16.6714 2.2222 16.6666H17.65C17.7675 16.6666 17.8829 16.636 17.985 16.5778C18.0871 16.5197 18.1723 16.436 18.2323 16.335C18.2923 16.234 18.325 16.1191 18.3273 16.0016C18.3295 15.8842 18.3011 15.7682 18.245 15.665L10.53 1.46774C10.4715 1.3615 10.3856 1.2729 10.2812 1.21118C10.1768 1.14945 10.0578 1.11686 9.93653 1.1168C9.81527 1.11675 9.69621 1.14923 9.59177 1.21085C9.48733 1.27248 9.40133 1.361 9.34276 1.46718L1.59942 15.6655H1.59998Z" fill="#FAAD14"/>
</svg>
