<svg
                  xmlns="http://www.w3.org/2000/svg"
                  width="21"
                  height="17"
                  viewBox="0 0 12 10"
                  fill="none"
                >
                  <path
                    d="M2.03102 0.636475C1.60985 0.778271 1.27408 1.06337 1.14918 1.3482C1.07852 1.50933 1.06762 1.6632 1.12603 1.81997C1.13271 1.83793 1.14056 1.85607 1.14937 1.8743C1.21424 1.834 1.28073 1.79637 1.34868 1.76152L1.4958 1.68617L1.60411 1.811C1.7245 1.94975 1.82934 2.10092 1.91868 2.25924C1.97899 2.18752 2.04072 2.07493 2.08392 1.93025C2.18918 1.57789 2.18522 1.06423 2.03102 0.636475ZM9.96846 0.636475C9.81424 1.06421 9.8103 1.57789 9.91554 1.93025C9.95876 2.07493 10.0205 2.18752 10.0808 2.25924C10.1702 2.1009 10.275 1.94975 10.3954 1.811L10.5037 1.68617L10.6508 1.76152C10.7187 1.79637 10.7852 1.834 10.8501 1.8743C10.8589 1.85604 10.8667 1.83793 10.8735 1.81997C10.9319 1.6632 10.921 1.50933 10.8503 1.3482C10.7254 1.06337 10.3896 0.778271 9.96846 0.636475ZM1.39092 2.22413C0.916286 2.51677 0.591208 2.96183 0.529684 3.3485C0.49577 3.56178 0.531794 3.75219 0.654442 3.92377C0.693348 3.97824 0.742169 4.03144 0.802192 4.08221C0.88195 3.95816 0.971617 3.84077 1.07032 3.73119L1.18094 3.60837L1.32665 3.68642C1.51204 3.7857 1.68436 3.90729 1.84087 4.04389C1.86368 3.95874 1.87882 3.85892 1.88243 3.7482C1.89733 3.29262 1.72392 2.68095 1.39092 2.22413ZM10.6086 2.22413C10.2755 2.68093 10.1021 3.29265 10.1171 3.7482C10.1207 3.85892 10.1358 3.95874 10.1586 4.04389C10.3151 3.90729 10.4874 3.7857 10.6728 3.68642L10.8185 3.60837L10.9292 3.73119C11.0279 3.84076 11.1175 3.95814 11.1973 4.08219C11.2573 4.03144 11.3061 3.97824 11.345 3.92375C11.4677 3.75219 11.5037 3.56178 11.4698 3.3485C11.4083 2.96183 11.0832 2.51677 10.6086 2.22413ZM1.27474 4.1483C0.93738 4.58907 0.794364 5.11892 0.876208 5.50177C0.921395 5.71304 1.02382 5.8786 1.20068 5.99579C1.31655 6.07257 1.46974 6.12938 1.66802 6.15153C1.71228 6.00786 1.76794 5.86795 1.83445 5.73312L1.90769 5.58458L2.06941 5.62055C2.16539 5.6419 2.26003 5.66851 2.35286 5.6997C2.34412 5.60975 2.32218 5.50787 2.28431 5.39923C2.13393 4.96808 1.75113 4.45742 1.27474 4.1483ZM10.7247 4.1483C10.2483 4.45742 9.86552 4.96808 9.71517 5.39923C9.67729 5.50787 9.65536 5.60975 9.64662 5.6997C9.73964 5.66836 9.83424 5.64194 9.93004 5.62055L10.0918 5.58458L10.165 5.73312C10.2315 5.86795 10.2872 6.00786 10.3315 6.15153C10.5297 6.1294 10.6829 6.07255 10.7988 5.99579C10.9757 5.8786 11.0781 5.71301 11.1233 5.50177C11.2051 5.11892 11.0621 4.58907 10.7247 4.1483ZM2.14427 6.07941C1.92665 6.62176 1.9327 7.2009 2.12765 7.56863C2.23476 7.77064 2.38795 7.91098 2.60268 7.98024C2.71017 8.0149 2.83605 8.03157 2.98202 8.0225C2.93198 7.76105 2.91707 7.48414 2.94086 7.20364L2.95497 7.03784L3.1195 7.01288C3.22404 6.99714 3.32932 6.98688 3.43493 6.98213C3.44791 6.98154 3.46087 6.98119 3.47383 6.98075C3.18276 6.611 2.6797 6.24411 2.14427 6.07941ZM9.85521 6.07941C9.31978 6.24411 8.81669 6.61098 8.52562 6.98075C8.53861 6.98119 8.55157 6.98154 8.56453 6.98213C8.67 6.98696 8.77535 6.99706 8.88 7.01288L9.04453 7.03784L9.05859 7.20364C9.0824 7.48411 9.0675 7.76105 9.01746 8.0225C9.16343 8.03155 9.28933 8.0149 9.39679 7.98024C9.61153 7.91098 9.76474 7.77064 9.87183 7.56861C10.0668 7.20087 10.0728 6.62173 9.85521 6.07941ZM5.99974 7.28581C5.91926 7.28581 5.86767 7.31122 5.80427 7.3771C5.7409 7.44296 5.67783 7.55335 5.62786 7.68877C5.5279 7.95962 5.47919 8.32158 5.46014 8.58985C5.43506 8.94242 5.53045 9.37191 5.74807 9.52876C5.859 9.60872 6.14048 9.60872 6.25141 9.52876C6.46903 9.37191 6.56442 8.94242 6.53934 8.58985C6.52029 8.32158 6.47158 7.95962 6.37162 7.68877C6.32165 7.55337 6.25858 7.44296 6.19521 7.3771C6.13181 7.31124 6.08022 7.28581 5.99974 7.28581ZM3.57347 7.40251C3.53329 7.40232 3.49322 7.40302 3.4533 7.40461C3.42037 7.4059 3.38838 7.4112 3.35571 7.41376C3.34591 8.06572 3.58577 8.66867 3.94151 8.97572C4.13519 9.14293 4.35368 9.22819 4.60596 9.21378C4.74443 9.20586 4.89644 9.1662 5.06004 9.0844C5.03027 8.90476 5.02776 8.723 5.03934 8.5599C5.05415 8.35154 5.08275 8.09204 5.14432 7.83622C4.74213 7.58576 4.14996 7.40511 3.57347 7.40251ZM8.42601 7.40251C7.84952 7.40508 7.25735 7.58579 6.85516 7.83622C6.91673 8.09204 6.94532 8.35154 6.96014 8.5599C6.97172 8.72297 6.96921 8.90476 6.93944 9.08443C7.10304 9.16622 7.25505 9.20586 7.39354 9.21378C7.6458 9.22819 7.86429 9.14293 8.058 8.97575C8.41371 8.66867 8.65357 8.06572 8.64377 7.41376C8.61112 7.4112 8.57908 7.4059 8.54618 7.40461C8.50614 7.40303 8.46608 7.40233 8.42601 7.40251Z"
                    fill="white"
                  />
                </svg>