<svg width="24" height="24" viewBox="0 0 24 24" fill="none" xmlns="http://www.w3.org/2000/svg">
<path d="M11.9999 18.2602C12.4896 18.2602 12.8866 17.8632 12.8866 17.3735C12.8866 16.8838 12.4896 16.4868 11.9999 16.4868C11.5103 16.4868 11.1133 16.8838 11.1133 17.3735C11.1133 17.8632 11.5103 18.2602 11.9999 18.2602Z" fill="#FAAD14"/>
<path d="M11.9997 15.0731C11.8229 15.0731 11.6533 15.0028 11.5283 14.8778C11.4032 14.7528 11.333 14.5832 11.333 14.4064V6.40641C11.333 6.2296 11.4032 6.06003 11.5283 5.93501C11.6533 5.80998 11.8229 5.73975 11.9997 5.73975C12.1765 5.73975 12.3461 5.80998 12.4711 5.93501C12.5961 6.06003 12.6663 6.2296 12.6663 6.40641V14.4064C12.6663 14.5832 12.5961 14.7528 12.4711 14.8778C12.3461 15.0028 12.1765 15.0731 11.9997 15.0731Z" fill="#FAAD14"/>
<path d="M10.041 1.12062C10.2263 0.783389 10.4988 0.502142 10.83 0.306293C11.1612 0.110444 11.539 0.00718808 11.9237 0.00732435C12.3085 0.00746063 12.6862 0.110984 13.0173 0.307068C13.3483 0.503152 13.6206 0.784591 13.8057 1.12195L23.0657 18.1619C23.2433 18.4889 23.3329 18.8564 23.3256 19.2284C23.3184 19.6004 23.2146 19.9641 23.0244 20.2839C22.8342 20.6037 22.5642 20.8685 22.2408 21.0525C21.9174 21.2365 21.5517 21.3332 21.1797 21.3333H2.68102C2.30477 21.3417 1.93292 21.2511 1.60275 21.0704C1.27258 20.8898 0.995702 20.6256 0.799866 20.3042C0.60403 19.9828 0.496123 19.6156 0.486964 19.2394C0.477805 18.8632 0.567717 18.4911 0.747683 18.1606L10.041 1.12062ZM1.91968 18.7986C1.851 18.9249 1.817 19.0671 1.82116 19.2108C1.82533 19.3545 1.8675 19.4945 1.94338 19.6166C2.01926 19.7387 2.12614 19.8385 2.25314 19.9058C2.38014 19.9732 2.52272 20.0056 2.66635 19.9999H21.1797C21.3207 19.9999 21.4592 19.9631 21.5817 19.8934C21.7042 19.8236 21.8065 19.7232 21.8785 19.602C21.9505 19.4808 21.9898 19.3429 21.9924 19.202C21.9951 19.061 21.9611 18.9218 21.8937 18.7979L12.6357 1.76128C12.5655 1.6338 12.4624 1.52748 12.3372 1.45341C12.2119 1.37934 12.0691 1.34023 11.9235 1.34016C11.778 1.34009 11.6352 1.37907 11.5098 1.45302C11.3845 1.52698 11.2813 1.6332 11.211 1.76062L1.91902 18.7986H1.91968Z" fill="#FAAD14"/>
</svg>
