 <svg
                  xmlns="http://www.w3.org/2000/svg"
                  width="22"
                  height="22"
                  viewBox="0 0 12 12"
                  fill="none"
                >
                  <path
                    fillRule="evenodd"
                    clipRule="evenodd"
                    d="M5.99902 0.625121C5.08502 0.625121 4.32952 0.705621 3.74802 0.803621L3.68102 0.815121C3.17602 0.899621 2.75602 0.970121 2.42752 1.37412C2.21752 1.63362 2.14902 1.91412 2.13352 2.22662L1.88752 2.30862C1.65602 2.38562 1.45252 2.45362 1.29202 2.52862C1.11802 2.60962 0.958523 2.71362 0.836523 2.88312C0.714523 3.05212 0.666023 3.23662 0.644023 3.42712C0.624023 3.60362 0.624023 3.81712 0.624023 4.06162V4.13412C0.624023 4.33512 0.624023 4.51262 0.639023 4.66112C0.655023 4.82162 0.690523 4.97812 0.779023 5.12912C0.868523 5.28062 0.987523 5.38762 1.12052 5.47962C1.24302 5.56462 1.39802 5.65112 1.57402 5.74862L2.89402 6.48212C3.16402 7.01262 3.53452 7.48562 4.04402 7.82712C4.48752 8.12512 5.02002 8.31212 5.65052 8.36162C5.63299 8.40569 5.62399 8.45269 5.62402 8.50012V9.37512H4.90902C4.70673 9.37513 4.51069 9.44523 4.35426 9.57349C4.19783 9.70175 4.09067 9.88025 4.05102 10.0786L3.94152 10.6251H2.99902C2.89957 10.6251 2.80418 10.6646 2.73386 10.735C2.66353 10.8053 2.62402 10.9007 2.62402 11.0001C2.62402 11.0996 2.66353 11.195 2.73386 11.2653C2.80418 11.3356 2.89957 11.3751 2.99902 11.3751H8.99902C9.09848 11.3751 9.19386 11.3356 9.26419 11.2653C9.33451 11.195 9.37402 11.0996 9.37402 11.0001C9.37402 10.9007 9.33451 10.8053 9.26419 10.735C9.19386 10.6646 9.09848 10.6251 8.99902 10.6251H8.05652L7.94702 10.0786C7.90737 9.88025 7.80022 9.70175 7.64379 9.57349C7.48736 9.44523 7.29132 9.37513 7.08902 9.37512H6.37402V8.50012C6.37405 8.45269 6.36506 8.40569 6.34752 8.36162C6.97802 8.31162 7.51052 8.12512 7.95402 7.82762C8.46402 7.48562 8.83402 7.01262 9.10402 6.48212L10.424 5.74862C10.6 5.65112 10.755 5.56462 10.8775 5.47962C11.01 5.38762 11.1295 5.28062 11.2185 5.12962C11.3075 4.97812 11.3435 4.82162 11.359 4.66112C11.374 4.51262 11.374 4.33512 11.374 4.13412V4.06162C11.374 3.81762 11.374 3.60362 11.354 3.42712C11.332 3.23662 11.284 3.05212 11.1615 2.88312C11.0395 2.71362 10.88 2.60962 10.7065 2.52812C10.545 2.45312 10.342 2.38562 10.1105 2.30862L9.86452 2.22662C9.84952 1.91362 9.78102 1.63362 9.57052 1.37412C9.24252 0.969621 8.82252 0.899121 8.31752 0.815121L8.25002 0.803621C7.50596 0.681646 6.75301 0.621939 5.99902 0.625121ZM7.29152 10.6251L7.21152 10.2256C7.20586 10.1973 7.19056 10.1718 7.16823 10.1535C7.1459 10.1352 7.11791 10.1251 7.08902 10.1251H4.90902C4.88014 10.1251 4.85215 10.1352 4.82982 10.1535C4.80748 10.1718 4.79219 10.1973 4.78652 10.2256L4.70652 10.6251H7.29152ZM2.14302 3.01412L2.15002 3.01162C2.18602 3.77162 2.27152 4.61162 2.48552 5.39662L1.95252 5.10112C1.75802 4.99262 1.63602 4.92462 1.54802 4.86362C1.46702 4.80712 1.44052 4.77362 1.42602 4.74862C1.41102 4.72362 1.39502 4.68462 1.38502 4.58662C1.37442 4.43053 1.37075 4.27404 1.37402 4.11762V4.08112C1.37402 3.81162 1.37452 3.64112 1.38902 3.51212C1.40302 3.39312 1.42502 3.34862 1.44502 3.32162C1.46452 3.29412 1.49952 3.25912 1.60802 3.20862C1.72602 3.15362 1.88802 3.09962 2.14302 3.01412ZM9.84802 3.01162C9.81252 3.77162 9.72652 4.61162 9.51302 5.39662L10.0455 5.10112C10.24 4.99262 10.362 4.92462 10.45 4.86362C10.531 4.80712 10.5575 4.77362 10.572 4.74862C10.587 4.72362 10.603 4.68462 10.613 4.58662C10.6235 4.47962 10.624 4.34012 10.624 4.11762V4.08112C10.624 3.81162 10.6235 3.64112 10.609 3.51212C10.595 3.39312 10.573 3.34862 10.553 3.32162C10.5335 3.29412 10.4985 3.25912 10.39 3.20862C10.272 3.15362 10.11 3.09912 9.85502 3.01362L9.84802 3.01162ZM3.87302 1.54312C4.57579 1.42814 5.28692 1.37194 5.99902 1.37512C6.86902 1.37512 7.58252 1.45162 8.12502 1.54312C8.72852 1.64512 8.85502 1.68312 8.98852 1.84712C9.11952 2.00812 9.13202 2.16112 9.10502 2.83862C9.06002 3.96762 8.91102 5.18662 8.45002 6.11362C8.22202 6.57062 7.92402 6.94462 7.53652 7.20462C7.15102 7.46312 6.65352 7.62512 5.99902 7.62512C5.34452 7.62512 4.84752 7.46312 4.46202 7.20462C4.07402 6.94462 3.77602 6.57062 3.54852 6.11312C3.08702 5.18662 2.93852 3.96812 2.89352 2.83812C2.86652 2.16112 2.87852 2.00812 3.01002 1.84712C3.14302 1.68312 3.26952 1.64512 3.87302 1.54312Z"
                    fill="white"
                  />
                </svg>