<svg xmlns="http://www.w3.org/2000/svg" xmlns:xlink="http://www.w3.org/1999/xlink" id="icons" style="enable-background:new 0 0 128 128;" version="1.1" viewBox="0 0 128 128" xml:space="preserve">
<g><path class="st4" d="M48.7,76.2c0,0-11.8-3.3-13.8-20.5c-0.1-0.9-1.3-1.2-1.7-0.4c-8.1,13-10.8,28.8,2.5,44   c15.7,17.8,50.4,16.2,61.2-6.4c9.7-20.4-0.1-36.1-2-39.1c-1.6-2.5-3.9-6.4-4.7-9.9c-0.2-0.8-1.2-1-1.7-0.4   c-5.3,7-7.6,12.2-7.1,21.4C75.8,55.4,68,41.5,70.5,25.1c0.1-0.7-0.7-1.3-1.3-1C58.6,29.4,39.7,42.8,48.7,76.2z" fill="#ffffff"/></g></svg>